<?xml version="1.0" encoding="utf-8"?>
<!-- Generator: Adobe Illustrator 24.0.0, SVG Export Plug-In . SVG Version: 6.00 Build 0)  -->
<svg version="1.1" id="Camada_1" xmlns="http://www.w3.org/2000/svg" xmlns:xlink="http://www.w3.org/1999/xlink" x="0px" y="0px"
	 viewBox="0 0 3737.6 1118.7" style="enable-background:new 0 0 3737.6 1118.7;" xml:space="preserve">
<style type="text/css">
	.st0{opacity:0.3;}
	.st1{opacity:3.000000e-02;fill:#FFFFFF;enable-background:new    ;}
	.st2{opacity:0.16;fill:url(#SVGID_1_);enable-background:new    ;}
	.st3{opacity:0.1;fill:url(#SVGID_2_);enable-background:new    ;}
	.st4{opacity:7.000000e-02;}
	.st5{fill:#B2B2B2;}
</style>
<title>image_cover_background</title>
<g>
	<g id="Camada_1_1_">
		<g class="st0">
			
				<ellipse transform="matrix(0.7071 -0.7071 0.7071 0.7071 592.6879 1935.5952)" class="st1" cx="2632.8" cy="252.4" rx="157.7" ry="157.7"/>
			
				<radialGradient id="SVGID_1_" cx="4042.9111" cy="572.579" r="106.723" gradientTransform="matrix(0.9843 -0.1762 -0.1762 -0.9843 -1118.4751 1424.6772)" gradientUnits="userSpaceOnUse">
				<stop  offset="0" style="stop-color:#FFFFFF"/>
				<stop  offset="1" style="stop-color:#000000"/>
			</radialGradient>
			<circle class="st2" cx="2760.2" cy="148.2" r="106.7"/>
		</g>
		
			<radialGradient id="SVGID_2_" cx="1445.01" cy="777.9223" r="339.81" gradientTransform="matrix(1 0 0 -1 0 1117.7323)" gradientUnits="userSpaceOnUse">
			<stop  offset="0" style="stop-color:#FFFFFF"/>
			<stop  offset="1" style="stop-color:#000000"/>
		</radialGradient>
		<circle class="st3" cx="1445" cy="339.8" r="339.8"/>
		<g class="st4">
			<g>
				<g>
					<path class="st5" d="M1.3,579.8c80.1-7.8,160.3-15.5,240-26.6c79.7-10.8,159-25.6,236.6-46.7c19.3-5.8,38.7-10.9,57.7-17.6
						l14.3-4.8c4.8-1.6,9.6-3.1,14.2-5l28.2-10.6l7-2.7l6.9-3l13.9-5.9c9.2-4,18.6-7.7,27.5-12.3l27.1-13.2c9-4.5,17.8-9.3,26.7-14
						c35.5-18.9,70.8-38.4,107.1-55.8c36.3-17.4,73.7-33,112.7-43.3c19.5-4.9,39.3-9.2,59.3-11.7c10-1.5,20-2.3,30.1-3.3
						c5-0.5,10.1-0.6,15.1-0.9c5-0.3,10.1-0.6,15.1-0.6c40.3-0.8,80.6,1.5,120.6,7c40,5.2,79.5,12.9,118.8,21.6
						c39.3,8.7,78.4,18.5,117.3,28.6c77.9,20.3,155.3,42.5,233.3,62.3s156.6,37.4,236.3,48.3c79.7,10.9,160.3,15.4,240.5,9.2
						c80.1-6.2,159.6-23.3,233.7-54.5c74.3-30.8,144.2-71.6,220.2-99.1c76-27.2,157.7-37.3,238.1-32c40.2,2.5,80.2,7.6,119.8,15.3
						c39.5,7.8,78.6,17.5,117.3,28.6c77.5,22.1,153.1,50,229.2,76.1c38.1,13.1,76.2,25.8,114.8,37.4s77.5,21.7,116.9,29.9l14.8,3
						c4.9,1,9.9,2,14.8,2.8l29.8,4.9l29.9,3.7c5,0.7,10,1.1,15,1.5l15,1.2c40.1,2.9,80.5,2.4,120.5-1.5
						c-40.1,4.1-80.4,4.7-120.6,1.9l-15-1.1c-5-0.4-10-0.7-15-1.4l-30-3.6l-29.8-4.8c-5-0.7-9.9-1.8-14.8-2.7l-14.8-2.9
						c-39.4-8.1-78.4-18.2-117-29.6s-76.8-24-115-37c-76.2-26-151.8-53.8-229.2-75.8c-38.7-11-77.8-20.7-117.2-28.4
						c-39.5-7.6-79.4-12.6-119.5-15c-80.2-5.3-161.5,5-237.1,32.1c-75.7,27.4-145.5,68.3-220,99.3c-74.4,31.4-154.2,48.7-234.5,55
						c-80.3,6.3-161.4,2.1-241.1-8.9s-158.6-28.8-236.6-48.7s-155.4-42.1-233.2-62.5c-38.9-10.2-78-19.9-117.2-28.8
						s-78.7-16.5-118.6-21.7c-39.8-5.5-80-7.9-120.2-7.1c-5,0-10,0.4-15,0.6c-5.1,0.2-10,0.4-15,0.9c-10,1-20,1.7-30,3.2
						c-19.9,2.5-39.6,6.7-59.1,11.6c-38.9,10.2-76.2,25.7-112.4,43s-71.5,36.8-107.1,55.7c-8.9,4.7-17.8,9.4-26.8,14l-27.3,13.2
						c-9,4.6-18.3,8.3-27.6,12.3l-13.9,5.9l-7,3l-7.1,2.7l-28.2,10.6c-4.7,1.9-9.5,3.4-14.3,5l-14.3,4.7c-9.5,3.2-19.1,6.4-28.8,9.1
						l-29,8.4c-77.8,20.9-157.2,35.4-236.9,46C161.6,564.9,81.5,572.3,1.3,579.8z"/>
					<path class="st5" d="M1.3,612.5c80-6.3,160.1-13.2,239.6-24.1c79.6-10.6,158.6-25.6,236-46.8l28.9-8.5l14.4-4.3l14.3-4.8
						l28.5-9.7l28.1-10.8c4.7-1.8,9.4-3.5,14-5.5l13.8-6l13.8-6c4.6-2,9.3-3.9,13.7-6.2c18-8.9,36.1-17.4,53.8-27
						c35.4-18.9,70.5-38.5,106.4-56.5c35.9-18,72.8-34.4,111.2-46.4s78.2-19.2,118.3-22.8c20-1.6,40.1-2.6,60.2-2.5
						c20.1-0.1,40.2,0.8,60.3,2.1c40.1,2.7,80,7.8,119.7,13.9c39.7,6.2,79.3,13,118.7,20.4c79,14.7,157.5,31.3,236.1,47.8
						c39.3,8.4,78.5,17.2,117.5,26.5c19.5,4.7,39,9.7,58.6,14l29.3,6.7l14.7,3.3l14.7,3c78.6,15.8,158.7,25.6,238.9,23.9
						c40.1-0.7,80-4.8,119.4-12.2c19.7-3.7,39.2-8.4,58.5-13.8c19.3-5.5,38.2-12,57-19.1c75-28.3,146.5-66,223-91.1
						c38.2-12.6,77.5-21.6,117.4-27c39.8-5.5,80.1-7.6,120.3-6.2c40.2,1.5,80.2,6.2,119.6,14.2c39.4,7.8,78.3,18.2,116.8,29.6
						c77,22.9,152.6,50.4,228.8,75.6c38.1,12.7,76.4,24.6,115.1,35.4s77.7,20.3,117.1,27.8c78.7,15.2,159.6,21.5,239.6,13.5
						c-80,8.3-160.9,2.2-239.7-12.8c-39.5-7.4-78.6-16.7-117.3-27.4s-77.1-22.5-115.3-35c-76.3-25.1-151.8-52.5-228.8-75.3
						c-38.5-11.4-77.3-21.7-116.6-29.5c-39.3-7.9-79.2-12.6-119.3-14c-40.1-1.3-80.2,0.8-119.9,6.3c-39.8,5.4-78.9,14.4-117,27
						c-76.3,25.2-147.6,62.8-222.8,91.3c-18.8,7.1-37.9,13.6-57.2,19.2s-38.9,10.2-58.7,14c-39.5,7.5-79.7,11.6-119.9,12.4
						c-80.5,1.7-160.8-7.9-239.6-23.8l-14.8-3.1l-14.7-3.3l-29.4-6.7c-19.6-4.3-39.1-9.3-58.6-14c-39-9.5-78.1-18.4-117.4-26.7
						c-78.6-16.6-157.1-33.3-236-48c-39.4-7.4-79-14.3-118.6-20.5c-39.6-6.2-79.4-11.3-119.4-14c-20-1.3-40-2.2-60.1-2.1
						c-20.1-0.2-40.1,0.8-60.1,2.4c-39.9,3.5-79.6,10.5-117.8,22.5S843.2,380,807.4,398s-71,37.5-106.4,56.4
						c-70.7,38.5-146.3,67.1-223.7,88.7c-77.6,21-156.7,35.8-236.3,46.1C161.4,599.8,81.3,606.5,1.3,612.5z"/>
					<path class="st5" d="M1.2,645.3c80.1-4.8,160.1-11,239.6-21.7c39.8-5.1,79.4-11.7,118.7-19.3l29.5-6c9.8-2,19.5-4.5,29.3-6.7
						c19.6-4.3,38.9-9.8,58.2-15c9.7-2.6,19.2-5.8,28.8-8.6s19.2-5.7,28.6-9.1l28.4-9.8c9.4-3.5,18.7-7.2,28.1-10.8l14-5.4
						c4.6-1.9,9.2-4,13.8-6l27.5-12.1l27-13.3c4.5-2.2,9-4.4,13.5-6.7l13.3-7c35.4-18.9,70.3-38.6,105.9-57.1s72-35.7,109.9-49.2
						l14.2-4.8c4.8-1.6,9.6-2.9,14.4-4.4c9.6-3.1,19.4-5.3,29.1-7.9c19.6-4.5,39.3-8.5,59.2-11.2c39.8-5.8,80-7.7,120.1-7.7
						c40.2,0.3,80.3,2.6,120.3,6s79.9,7.3,119.8,11.6c79.8,8.7,159.3,19.5,238.4,33c39.5,7,78.8,15.5,117.6,26.2
						c38.6,11,76.9,22.9,115.6,33.5c77.3,20.9,156.5,36.3,236.6,39.5c40,1.6,80.1-0.6,119.7-6.5c19.8-3,39.4-6.9,58.8-11.8
						c19.4-4.9,38.6-10.8,57.6-17.2c75.9-25.8,148.7-60.4,225.5-84c38.4-11.7,77.7-20.6,117.4-26.7c39.7-6.2,79.8-9.7,120-9.2
						s80.3,5.2,119.6,13.3s78,19,116.4,30.8c19.2,5.9,38.3,12,57.4,18.2l57.2,18.9c38,12.7,76,25.6,114.2,37.8
						c76.4,24.3,154,45.3,233,59.2c79,13.8,159.7,19.3,239.6,11.7c-79.8,7.9-160.7,2.8-239.7-10.9c-79-13.7-156.8-34.4-233.4-58.5
						c-38.3-12.1-76.3-25-114.3-37.6l-57.1-18.8c-19.1-6.2-38.2-12.2-57.4-18.1c-38.3-11.8-77-22.6-116.2-30.6
						s-79.2-12.8-119.2-13.2s-80.1,3-119.7,9.3c-39.6,6.1-78.7,15-117.1,26.7c-76.7,23.6-149.4,58.3-225.4,84.2
						c-19,6.4-38.3,12.3-57.7,17.3s-39.2,8.9-59.1,11.9c-39.8,5.9-80,8.2-120.2,6.6c-80.4-3.2-159.8-18.5-237.3-39.4
						c-38.7-10.7-77-22.6-115.6-33.6c-38.6-10.8-77.8-19.3-117.3-26.3c-79-13.6-158.5-24.5-238.2-33.2
						c-39.8-4.4-79.8-8.3-119.7-11.8c-39.9-3.5-80-5.8-120.1-6.1c-40.1,0-80.2,1.8-119.8,7.5c-19.9,2.6-39.5,6.6-59,11.1
						c-9.7,2.5-19.5,4.8-29,7.8c-4.8,1.5-9.6,2.8-14.4,4.4l-14.2,4.8c-37.7,13.4-74.1,30.6-109.7,49c-35.6,18.4-70.6,38.1-106,57
						l-13.3,7c-4.5,2.3-9,4.5-13.5,6.7l-27,13.3l-27.6,12.1c-4.6,2-9.2,4-13.8,6l-14,5.4c-9.4,3.6-18.7,7.3-28.1,10.8l-28.5,9.8
						c-9.5,3.4-19.1,6.2-28.7,9.1c-9.6,2.9-19.2,6-28.9,8.5c-19.4,5.1-38.7,10.5-58.4,14.8c-9.8,2.2-19.5,4.7-29.4,6.6l-29.5,6
						c-39.4,7.5-79,14-118.8,19C161.3,634.8,81.3,640.7,1.2,645.3z"/>
					<path class="st5" d="M1.1,677.9c80.2-3.3,160.4-8.8,240-19.3c39.8-5,79.4-11.7,118.8-19.3l29.5-6.1l7.4-1.5l7.3-1.8l14.6-3.5
						c19.6-4.4,38.9-9.9,58.2-15.2c38.4-11.3,76.7-23.5,113.9-38.7c18.8-7,36.9-15.7,55.3-23.7c9.1-4.2,18-8.9,27-13.3l13.5-6.7
						c4.5-2.3,8.9-4.7,13.3-7c70.7-37.7,139.6-79.8,214.6-109.3c37.5-14.7,76.2-25.9,115.7-33.5c19.7-4,39.6-6.8,59.5-9.4
						c20-2.3,40-4.1,60-5.3c40.1-2.4,80.3-2.8,120.5-2.3s80.3,1.2,120.4,2.4c80.3,2.4,160.5,7.3,240.2,18.1
						c39.8,5.8,79.3,14.1,117.6,26.5c38.2,12.6,75.6,27.3,113.5,40.3c75.7,26.2,153.6,47.7,233.4,55.9c39.9,3.9,80.1,3.6,119.9-0.7
						c19.9-2.2,39.7-5.4,59.3-9.6c19.6-4.3,38.9-9.5,58.1-15.2c76.8-23.1,150.8-55.1,228-77.7c38.6-11.4,77.8-20.2,117.3-27.4
						s79.6-12.1,119.8-12.3c20.1-0.2,40.2,0.8,60.2,3c20,2.2,39.8,5.6,59.5,9.8c39.3,8.4,77.9,19.9,116.1,31.9s76.4,24.6,114.6,37.1
						c38.1,12.6,76.2,25.2,114.6,36.9s77.1,22.3,116.1,31.6c39,9.4,78.4,17.5,118,23.7c79.2,12.7,160,17.2,240,10
						c-80,7.5-160.8,3.2-240.1-9.2c-39.7-6.2-79.1-14.2-118.1-23.4c-39.1-9.2-77.9-19.6-116.3-31.3s-76.6-24.2-114.7-36.8
						c-38.2-12.4-76.3-24.9-114.6-36.9s-76.8-23.5-116-31.8c-19.6-4.1-39.4-7.5-59.3-9.7c-19.9-2.2-40-3.2-60-3
						c-40.1,0.3-80,5.3-119.4,12.4s-78.6,16.1-117.1,27.5c-77,22.6-150.9,54.6-227.9,77.9c-19.3,5.8-38.7,11-58.3,15.3
						c-19.7,4.3-39.5,7.5-59.5,9.8c-40,4.4-80.4,4.7-120.5,0.8c-80.2-8.1-158.2-29.6-234.1-55.8c-38-13.1-75.4-27.9-113.4-40.4
						c-38.1-12.3-77.4-20.7-117.1-26.5c-79.5-10.9-159.8-15.9-239.9-18.3c-40.1-1.2-80.2-1.9-120.4-2.5s-80.3-0.2-120.3,2.1
						c-80,4.5-160,18.4-234.6,47.8s-143.7,71.2-214.5,108.9c-4.5,2.3-8.9,4.8-13.3,7l-13.5,6.7c-9,4.4-17.9,9-27,13.3
						c-18.4,8-36.6,16.6-55.4,23.6c-37.2,15.2-75.6,27.4-114.1,38.6c-19.4,5.2-38.7,10.7-58.3,15l-14.7,3.5l-7.3,1.7l-7.4,1.5
						l-29.5,6c-39.4,7.5-79.1,14.1-118.9,18.9C161.5,669.7,81.3,674.8,1.1,677.9z"/>
					<path class="st5" d="M1,710.7c80.4-1.9,160.9-6.6,240.6-17c39.9-4.9,79.6-11.6,119.1-19.3c19.7-4.2,39.4-8.1,58.9-13.1
						l14.7-3.6l7.3-1.8l7.3-2l29.1-8.1c38.5-11.5,76.8-23.9,114-39.2c18.8-7.1,37-15.7,55.4-23.9c4.6-2,9.1-4.3,13.6-6.6l13.5-6.8
						c9-4.5,18-8.9,26.8-13.8c35.5-19,70.3-39,105.7-58.3c35.3-19.4,71.1-37.9,108.2-53.7c37.1-15.8,75.4-28.6,114.5-38.3
						c19.5-4.9,39.3-8.9,59.1-12.6c19.8-3.4,39.7-6.6,59.7-9c40-5,80.1-8.1,120.3-10.6c40.2-2.5,80.3-5.2,120.5-7.3
						c40.2-2.1,80.5-3.4,120.7-3.2c20.1,0.2,40.3,0.7,60.4,1.6c20.1,1,40.2,2.3,60.3,4.7c40,4.8,79.8,13.2,117.6,27.2
						c9.5,3.5,18.7,7.4,28.1,11.2l27.7,12.1c18.4,8.1,36.8,16.3,55.3,24.2c36.9,15.9,74.3,30.7,112.5,43.3c19.1,6.3,38.3,12,57.8,17
						c19.4,5,39,9.4,58.9,12.5c19.8,3.1,39.8,5.1,59.9,6c20.1,0.8,40.1,0.6,60.2-0.8c40.1-2.8,79.6-10.4,118.5-20.6
						c77.8-20.4,152.8-50,230.3-72.2c38.7-11.1,77.9-20.5,117.3-28.9s79.4-14.6,119.7-15.7s80.7,3.9,120,12.6s77.8,20.7,116.1,33
						l114.9,37.1c38.2,12.5,76.6,24.8,115.2,36s77.6,21.1,116.9,29.9s78.8,16.2,118.6,21.9c79.6,11.5,160.5,15.4,240.7,8.4
						c-80.2,7.2-161.1,3.6-240.8-7.6c-39.9-5.6-79.4-13-118.8-21.5s-78.4-18.3-117.1-29.5c-38.7-11.2-77-23.4-115.3-35.9
						l-114.9-36.9c-38.3-12.2-76.8-24.2-116-32.8s-79.3-13.6-119.5-12.5s-80,7.4-119.3,15.8s-78.4,17.8-117.1,29
						c-77.3,22.2-152.3,51.9-230.3,72.5c-38.9,10.3-78.7,18-119,20.8c-20.1,1.4-40.3,1.7-60.5,0.8c-20.2-0.9-40.2-2.9-60.2-5.9
						c-19.9-3.1-39.6-7.5-59.2-12.5s-38.9-10.8-58-17c-38.3-12.6-75.8-27.4-112.8-43.3c-18.5-8-36.9-16.2-55.3-24.2l-27.6-12.1
						c-9.3-3.8-18.6-7.7-28-11.2c-37.6-14-77.1-22.4-117-27.2c-19.9-2.5-40-3.7-60-4.8s-40.2-1.5-60.3-1.7c-40.2-0.3-80.4,1-120.6,3
						s-80.3,4.8-120.5,7.2c-40.2,2.4-80.3,5.6-120.1,10.5c-20,2.4-39.8,5.5-59.6,8.9c-19.8,3.6-39.5,7.6-58.9,12.5
						c-39,9.6-77.2,22.3-114.2,38c-37,15.7-72.8,34.2-108,53.5s-70.2,39.3-105.8,58.3c-8.8,4.8-17.9,9.2-26.9,13.8l-13.5,6.8
						c-4.5,2.2-9,4.6-13.6,6.5c-18.4,8.1-36.6,16.7-55.4,23.8c-37.3,15.3-75.6,27.7-114.3,39.1l-29.1,8l-7.3,2l-7.3,1.8l-14.7,3.5
						c-19.5,5-39.3,8.8-59,12.9c-39.5,7.6-79.3,14.2-119.2,19C161.9,704.5,81.4,709,1,710.7z"/>
					<path class="st5" d="M0.9,743.4c80.8-0.4,161.6-4.5,241.7-14.8c40.1-4.8,79.9-11.6,119.5-19.4c19.7-4.3,39.5-8.3,59.1-13.3
						l14.7-3.6l7.4-1.8l7.3-2l29.1-8.2l7.3-2.1l7.2-2.3l14.4-4.6l14.4-4.7l7.2-2.3l7.1-2.6l28.5-10.3l7.1-2.6l7-2.8l14-5.7
						c18.8-7.2,37.1-15.9,55.5-24.2c4.6-2,9.1-4.3,13.6-6.6l13.5-6.8c9-4.6,18.1-9,26.9-13.8c71.1-38.2,139.9-81.1,213.5-114.8
						c36.8-16.8,74.7-31.1,113.5-42.6c38.8-11.4,78.1-20.9,117.9-28.3c39.7-7.6,79.7-13.5,119.7-19.2s79.9-11.9,120-17.3
						c40.1-5.5,80.3-10,120.6-12.3c20.2-1.2,40.4-1.7,60.6-1.8c20.2-0.1,40.5,0.6,60.7,2.5c40.3,3.9,80.4,12.6,117.7,28.7
						c4.7,2,9.3,4.1,13.8,6.3c4.6,2.1,9.2,4.2,13.7,6.5l26.9,14l26.9,14l26.8,14.1c35.8,18.6,72.1,36.5,109.3,52.1
						c18.6,7.8,37.4,15,56.5,21.5c19,6.6,38.4,12.1,58.1,16.5c39.4,8.6,79.7,12.3,120,11.2c40.3-1,80.3-7.3,119.6-16.1
						s78.1-20.2,116.7-32.1l57.9-17.8l29-8.9l14.5-4.4c4.8-1.5,9.7-2.7,14.6-4.1l58.4-16.1c19.5-5.2,39.1-10.3,58.7-15.1
						c39.2-9.6,79.1-17.5,119.7-19.1c40.5-2,81.1,3.3,120.4,12.4s77.9,21.6,116.4,34l115.4,37c38.4,12.4,77,24.4,115.9,35.2
						s78.2,20,117.8,28.2s79.4,15,119.4,20.2c80.1,10.3,161.2,13.6,241.8,6.9c-80.5,7-161.7,4-241.9-6.1
						c-40.1-5.1-79.9-11.8-119.6-19.8s-79-17-118-27.8s-77.6-22.7-116-35l-115.5-36.8c-38.4-12.4-76.9-24.9-116.2-33.9
						s-79.6-14.2-119.9-12.2c-40.3,1.7-80.1,9.6-119.2,19.2c-19.6,4.9-39.1,9.9-58.6,15.1l-58.4,16.1c-4.9,1.4-9.8,2.6-14.6,4.1
						l-14.5,4.5l-29,8.9l-57.9,17.8c-38.6,11.9-77.4,23.4-116.9,32.3s-79.6,15.3-120.1,16.3c-40.5,1.2-81.1-2.5-120.7-11.1
						c-19.8-4.3-39.3-9.8-58.4-16.5c-19.2-6.5-38.1-13.7-56.7-21.5c-37.3-15.6-73.7-33.4-109.5-52.1l-26.8-14.1l-26.8-14l-26.9-14
						c-4.5-2.3-9.1-4.3-13.7-6.5s-9.1-4.2-13.8-6.2c-37-15.9-76.8-24.7-116.8-28.6c-20-2-40.2-2.6-60.4-2.6
						c-20.2,0-40.3,0.5-60.5,1.7c-40.3,2.3-80.4,6.7-120.4,12.1s-79.9,11.7-120,17.2s-80,11.5-119.6,19
						c-39.7,7.3-78.9,16.7-117.6,28.1c-38.7,11.5-76.5,25.7-113.3,42.4c-73.5,33.6-142.3,76.4-213.6,114.6c-8.8,4.9-18,9.3-27,13.8
						l-13.5,6.8c-4.5,2.3-9,4.6-13.7,6.6c-18.5,8.3-36.8,16.9-55.6,24.1c-37.3,15.4-75.8,28.1-114.5,39.6l-29.2,8.2l-7.3,2l-7.4,1.8
						l-14.7,3.6c-19.6,5-39.4,9-59.2,13.2c-39.7,7.7-79.5,14.4-119.7,19.1C162.5,739.4,81.7,743.2,0.9,743.4z"/>
					<path class="st5" d="M0.8,776.1c81.2,1.1,162.6-2.3,243.2-12.6c40.4-4.7,80.4-11.7,120.2-19.6l29.8-6.5l7.4-1.6l7.4-1.8
						l14.8-3.7l14.8-3.7l7.4-1.9l7.3-2.1l29.2-8.4c38.8-11.9,77.3-24.9,114.8-40.6c18.9-7.4,37.3-16.1,55.7-24.5
						c4.6-2,9.2-4.3,13.7-6.7l13.6-6.9c9-4.6,18.2-9.1,27-14c71.5-38.6,140.4-82,213.6-117.5c36.6-17.8,74.2-33.4,112.7-46.8
						c38.4-13.4,77.5-24.8,116.8-34.9c39.4-10.1,79-19,118.7-27.9s79-18.7,118.7-27.5c39.7-8.9,79.6-16.6,120.1-21.4
						c20.2-2.5,40.5-4.1,60.8-5c20.3-1.1,40.7-1,61.1,0.5c40.6,3.1,81.1,12.3,117.8,30.5c36.7,17.9,70.3,41,104.9,62.2
						c34.5,21.4,69.4,42.3,105.4,60.9c18,9.3,36.3,18.1,55,26.1c18.6,8.1,37.7,15,57.1,20.5c39,11,79.3,16.8,119.9,17.4
						c20.3,0.2,40.5-0.6,60.7-2.7c20.2-2,40.2-5.1,60.2-8.8c19.9-3.7,39.7-8.2,59.4-13s39.3-10.1,58.8-16l117-34.2l117.1-33.6
						c39.1-11,79-20.4,119.7-22.9c20.3-1.2,40.7-0.7,61,1.5c20.2,2.3,40.3,5.8,60.1,10.6c39.6,9.4,78.2,22.4,116.8,35
						s77.4,24.7,116.1,37c38.7,12.3,77.6,24,116.9,34.4s79,19,118.9,26.5s80,13.8,120.4,18.5c80.7,9.3,162.2,11.9,243.3,5.5
						c-81,6.7-162.6,4.3-243.3-4.7c-40.4-4.6-80.6-10.7-120.5-18.1s-79.7-15.8-119.1-26.2s-78.2-22.1-117-34.3
						c-38.8-12.2-77.5-24.3-116.2-36.9s-77.1-25.6-116.7-34.9s-80-14.6-120.5-11.9c-40.5,2.5-80.2,11.9-119.2,22.9l-117.1,33.7
						l-117,34.3c-19.4,5.9-39.1,11.1-58.8,16s-39.6,9.4-59.6,13.2s-40.1,6.8-60.4,8.9c-20.3,2-40.6,3-61,2.7
						c-40.8-0.6-81.3-6.4-120.6-17.4c-19.6-5.6-38.8-12.5-57.5-20.6c-18.7-8-37.1-16.7-55.2-26.1c-36.2-18.7-71.1-39.5-105.7-61
						c-34.7-21.2-68.2-44.4-104.6-62.2c-36.2-18.1-76.4-27.3-116.7-30.4c-20.2-1.5-40.5-1.7-60.7-0.6c-20.3,0.9-40.5,2.5-60.6,4.9
						c-40.3,4.7-80.2,12.4-119.8,21.2s-79,18.7-118.8,27.4s-79.2,17.7-118.6,27.7s-78.3,21.4-116.7,34.7
						c-38.3,13.3-75.9,28.9-112.4,46.6c-73.1,35.4-142,78.7-213.6,117.3c-8.9,4.9-18,9.3-27.1,14l-13.6,6.9c-4.5,2.3-9,4.6-13.7,6.7
						c-18.5,8.4-36.9,17.1-55.8,24.5c-37.5,15.7-76.1,28.7-115,40.5l-29.3,8.3l-7.3,2.1l-7.4,1.8l-14.8,3.7l-14.8,3.7l-7.4,1.8
						l-7.4,1.6l-29.8,6.4c-39.9,7.8-80,14.6-120.4,19.3C163.4,774.2,82,777.4,0.8,776.1z"/>
					<path class="st5" d="M0.8,808.8c81.8,2.6,163.8-0.2,245-10.4l15.3-1.9l7.6-0.9l7.6-1.2l30.3-4.7l7.6-1.2l7.6-1.4l15.1-2.8
						c10-2,20.2-3.5,30.1-5.9l30-6.6c5-1,10-2.3,14.9-3.6l14.9-3.8c19.9-4.8,39.5-10.8,59.1-16.5c39-12.3,77.8-25.5,115.4-41.6
						c19-7.5,37.4-16.5,56-25c4.7-2,9.2-4.5,13.8-6.8l13.7-7c9.1-4.7,18.3-9.2,27.2-14.2c71.9-39.1,141.1-83,214-120.5
						c36.4-18.7,73.7-35.6,111.8-50.8c38-15.2,76.7-28.8,115.6-41.4s78.1-24.5,117.2-36.6c39.1-12.1,77.7-25.6,116.8-37.8
						c19.5-6.1,39.2-11.9,59-17s39.8-9.7,60-13.3c10.1-2,20.2-3.3,30.4-4.8c10.2-1.2,20.3-2.6,30.6-3.3c20.4-2,41-2.5,61.5-1.3
						c40.9,2.4,81.9,12.5,117.9,32.9c8.8,5.3,17.8,10.2,26.4,15.9s17,11.5,25.3,17.5l49.5,36.3c33,24.2,66.3,48,100.9,69.7
						c17.3,10.8,35,21.1,53.1,30.6c18,9.6,36.7,17.8,56,24.6c19.2,6.8,39,12.2,59,16.1c20,4,40.3,6.6,60.7,7.8
						c40.8,2.6,81.7-0.4,122.1-6.5c40.4-6,80.3-15.2,119.9-25.6s78.8-22.1,118-33.8l58.8-17.6c19.5-6,39-12.5,58.5-18.7
						c38.9-12.4,78.8-23.5,119.8-26.8c20.5-1.6,41.1-1.3,61.5,0.9c20.4,2.2,40.6,5.8,60.5,10.7c39.9,9.6,78.6,23.1,117.4,35.9
						c19.4,6.5,38.9,12.5,58.5,18.7l58.6,18.4c39.1,12.1,78.3,23.7,118,33.7s79.8,18,120.1,25s80.8,12.7,121.5,16.9
						c81.4,8.3,163.5,10.3,245.1,4.2c-81.6,6.4-163.8,4.7-245.2-3.4c-40.7-4.1-81.3-9.7-121.7-16.5s-80.6-14.7-120.3-24.7
						s-79-21.5-118.1-33.6l-58.6-18.3c-19.5-6.1-39.1-12.2-58.5-18.6c-38.9-12.8-77.6-26.2-117.4-35.8c-19.8-4.9-40-8.4-60.3-10.6
						c-20.3-2.1-40.8-2.4-61.1-0.8c-40.8,3.3-80.4,14.4-119.3,26.9c-19.5,6.2-38.9,12.7-58.5,18.7l-58.8,17.7
						c-39.2,11.8-78.4,23.5-118,34s-79.6,19.7-120.1,25.8s-81.6,9.1-122.6,6.6c-20.5-1.2-40.9-3.8-61-7.8
						c-20.2-3.9-40-9.3-59.4-16.2c-19.4-6.8-38.2-15-56.4-24.7c-18.2-9.5-35.9-19.8-53.3-30.6c-34.8-21.7-68.1-45.5-101.2-69.7
						l-49.5-36.3c-8.3-6-16.7-11.8-25.2-17.4c-8.5-5.6-17.4-10.6-26.2-15.8c-35.4-20.1-76-30.2-116.6-32.6
						c-20.4-1.2-40.8-0.8-61.1,1.2c-10.2,0.7-20.3,2.1-30.4,3.3c-10.1,1.5-20.2,2.9-30.3,4.8c-20.1,3.5-40.1,8-59.8,13.1
						s-39.4,10.8-58.9,16.9c-39,12.2-77.7,25.6-116.8,37.7s-78.3,23.8-117.2,36.5c-38.9,12.6-77.6,26.1-115.6,41.2
						c-38,15.1-75.3,32-111.7,50.6c-72.8,37.3-142.1,81.2-214.1,120.2c-8.9,5-18.1,9.5-27.2,14.2l-13.7,7c-4.6,2.3-9.1,4.7-13.8,6.8
						c-18.6,8.5-37.1,17.4-56.1,24.9c-37.7,16.1-76.5,29.3-115.6,41.5c-19.7,5.6-39.3,11.6-59.2,16.3l-14.9,3.8
						c-5,1.3-9.9,2.5-14.9,3.5l-30,6.5c-10,2.3-20.1,3.9-30.1,5.8l-15.1,2.8l-7.5,1.4l-7.6,1.2l-30.4,4.6l-7.6,1.1l-7.6,0.9
						l-15.2,1.8C164.6,809,82.5,811.6,0.8,808.8z"/>
					<path class="st5" d="M0.7,841.5c82.5,4.1,165.3,1.9,247.2-8.3c82-9.6,163-27.2,241.9-51.5c9.9-3,19.6-6.5,29.4-9.7
						s19.6-6.5,29.2-10.2l29-10.9c9.6-3.8,19-7.9,28.6-11.9l14.3-6c4.8-2,9.4-4.3,14.1-6.4l28-13.1c9.3-4.5,18.4-9.4,27.6-14.1
						s18.4-9.4,27.4-14.4c72.4-39.7,142.1-84.2,214.8-123.6c36.4-19.6,73.4-38,111.1-54.9c37.7-16.9,75.9-32.7,114.3-48
						c38.4-15.3,76.9-30,115.3-45.4c38.3-15.4,75.9-32.5,114.2-47.9c38.3-15.4,77.4-29.3,117.7-38.9c20.1-4.7,40.5-8.8,61-11.2
						c20.5-2.9,41.3-3.9,62-3c10.4,0.5,20.7,1.6,31,3.1c10.3,1.6,20.4,3.9,30.4,6.8c10,2.9,19.7,6.5,29.2,10.8c4.8,2,9.3,4.6,14,6.9
						c4.5,2.7,9.1,5.1,13.4,8c8.7,5.7,17.5,11.2,25.7,17.5c8.2,6.3,16.4,12.7,24.3,19.3c15.9,13.3,31.5,26.8,47.2,40.2
						c31.4,26.9,62.8,53.6,96,78.2c16.6,12.3,33.5,24,51,35c17.4,11,35.6,20.6,54.6,28.7c37.9,16,78,26.4,119,30.8
						c20.5,2.2,41.1,3.2,61.7,2.8c20.6-0.3,41.2-1.7,61.7-4c41-4.6,81.5-12.6,121.6-22.3c20-4.9,40-10.2,59.9-15.8
						c19.8-5.6,39.7-11.4,59.3-17.7l59.1-18.5c19.6-6.5,38.9-13.6,58.4-20.6c38.8-13.9,78.5-26.9,119.9-31c20.6-2.1,41.4-2.1,62,0
						c20.6,2.1,41,5.7,61.1,10.7c40.2,9.8,79.2,23.7,118.3,36.8c19.6,6.6,39.3,12.6,59,18.8l59.2,18.4c39.5,12,79.2,23.5,119.3,33.1
						c40.1,9.8,80.8,17,121.5,23.6s81.7,11.7,122.9,15.4c82.2,7.4,165,8.8,247.4,2.9c-82.4,6.1-165.2,5-247.5-2.2
						c-41.1-3.6-82.1-8.6-123-15c-40.8-6.5-81.5-13.5-121.7-23.2s-79.9-21-119.4-33l-59.2-18.3c-19.7-6.1-39.5-12.2-59.1-18.7
						c-39.2-13-78.1-26.9-118.2-36.6c-20-5-40.3-8.5-60.8-10.7c-20.5-2.1-41.1-2.1-61.6,0c-41.1,4.2-80.6,17.1-119.3,31
						c-19.4,7-38.8,14.1-58.4,20.7l-59.1,18.6c-19.7,6.3-39.5,12.2-59.4,17.8c-19.9,5.6-39.8,11-59.9,15.9
						c-40.1,9.8-80.8,17.9-121.9,22.5c-20.6,2.3-41.2,3.8-61.9,4.1c-20.7,0.4-41.4-0.5-62-2.8c-41.3-4.4-81.7-14.8-119.9-30.9
						c-19.1-8.1-37.5-17.7-55-28.8c-17.5-11-34.6-22.8-51.2-35.1c-33.3-24.6-64.8-51.4-96.2-78.2c-15.7-13.4-31.3-27-47.1-40.2
						c-7.9-6.6-15.9-13.1-24.2-19.2c-8.2-6.2-16.9-11.7-25.5-17.4c-4.2-2.9-8.8-5.3-13.2-7.9c-4.6-2.3-9-4.8-13.8-6.8
						c-9.3-4.3-19-7.8-28.8-10.7c-9.9-2.9-19.9-5.1-30-6.8c-10.1-1.6-20.4-2.6-30.6-3.1c-20.6-0.9-41.2,0.1-61.5,2.9
						c-20.5,2.4-40.7,6.4-60.8,11.1c-40.1,9.5-79.1,23.2-117.4,38.6s-76,32.4-114.3,47.9c-38.3,15.4-76.9,30.1-115.3,45.3
						c-76.8,30.3-152.7,63.1-225.3,102.5c-72.7,39.3-142.4,83.7-214.9,123.4c-9,5-18.2,9.7-27.4,14.4c-9.2,4.7-18.3,9.5-27.6,14
						l-28.1,13c-4.7,2.1-9.3,4.5-14.1,6.4l-14.3,6c-9.5,3.9-19,8.1-28.6,11.8l-29,10.9c-9.6,3.8-19.5,7-29.3,10.2
						s-19.6,6.7-29.4,9.7c-79,24-160.1,41.4-242.2,50.8C166,843.9,83.1,845.8,0.7,841.5z"/>
					<path class="st5" d="M0.6,874.2l31.3,1.7c5.2,0.3,10.4,0.7,15.6,0.8l15.6,0.3c10.4,0.2,20.9,0.6,31.3,0.5l31.3-0.4
						c41.7-1.3,83.4-3.8,124.8-9.1c82.9-9.5,164.6-27.9,244.2-52.8l29.6-10l14.8-5l14.6-5.6l29.2-11.1l28.8-12.2l14.4-6.1l14.2-6.6
						l28.3-13.3l27.8-14.4l13.9-7.2l13.7-7.5c73-40.5,143.2-85.7,215.7-127.1c72.5-41.5,147.7-78,223.2-113.5
						c37.7-17.9,75.5-35.6,112.8-54.3s73.7-39.2,111.1-57.7c18.7-9.2,37.6-18.2,57-26.1c19.4-7.9,39-15.1,59.1-21
						c20.1-5.9,40.5-10.6,61.1-14.1c10.3-1.8,20.7-3.1,31.2-3.8c10.5-0.8,20.9-1,31.4-0.6c21,0.6,41.8,4.1,61.9,10.3
						c10,3.2,19.7,7.2,29.1,11.9c9.3,4.9,18.5,10.2,26.8,16.5c17.4,11.7,33,25.9,48.1,40.3c15.1,14.4,29.8,29.2,44.6,43.9
						c29.6,29.4,59.1,58.9,90.5,86.3c31.5,27.2,64.2,53.5,101.5,72.1c37.2,18.7,77.1,31.5,118.3,38c20.5,3.3,41.3,5.3,62.1,5.9
						c20.8,0.7,41.6,0.2,62.4-1.4c41.6-3,82.8-9.8,123.4-18.9c40.7-9,80.9-20.3,120.7-32.7c19.9-6.2,39.7-12.8,59.3-19.7
						c19.6-7,39-14.8,58.4-22.5c38.7-15.4,78.2-30.3,119.9-35.6c20.8-2.6,41.8-3,62.7-1.1c20.8,2,41.5,5.5,61.8,10.6
						c40.6,9.9,79.9,24.3,119.4,37.6c19.7,6.7,39.7,12.8,59.6,18.9s39.8,12.4,59.8,18.4c39.9,12,80.1,23.3,120.8,32.6
						c40.6,9.5,81.8,16.2,123.1,22.2s82.8,10.6,124.3,13.9c83.2,6.6,166.8,7.2,250.1,1.7c-83.3,5.8-166.9,5.4-250.1-0.9
						c-41.6-3.2-83.1-7.7-124.4-13.6c-41.3-6-82.6-12.5-123.3-21.9s-81-20.5-120.9-32.4c-20-6-39.9-12.2-59.9-18.3
						s-39.9-12.2-59.7-18.9c-39.5-13.3-78.8-27.6-119.3-37.4c-20.2-5-40.8-8.5-61.5-10.5c-20.7-1.9-41.6-1.5-62.2,1.1
						c-41.4,5.3-80.7,20.2-119.4,35.6c-19.4,7.7-38.7,15.6-58.4,22.6c-19.7,7-39.5,13.6-59.4,19.8c-39.9,12.4-80.1,23.8-120.8,32.9
						s-82.1,16-123.8,19c-20.8,1.6-41.8,2.1-62.7,1.5c-20.9-0.6-41.8-2.5-62.4-5.8c-41.4-6.5-81.6-19.4-119.1-38.2
						c-18.7-9.4-36.6-20.5-53.4-33c-16.8-12.4-33-25.7-48.8-39.4c-31.5-27.5-61.2-57-90.7-86.4c-14.8-14.7-29.5-29.5-44.6-43.9
						s-30.5-28.4-47.8-40c-8.3-6.2-17.2-11.6-26.4-16.3c-9.3-4.6-18.9-8.6-28.7-11.8c-19.8-6.2-40.4-9.6-61.1-10.3
						c-10.4-0.4-20.8-0.2-31.1,0.6c-10.4,0.7-20.7,2-30.9,3.8c-20.5,3.4-40.8,8.1-60.8,13.9c-20,5.9-39.5,13-58.8,20.9
						s-38.1,16.8-56.8,26c-37.4,18.5-73.8,38.9-111.1,57.6c-37.3,18.7-75.2,36.4-112.9,54.2c-75.5,35.4-150.7,71.8-223.1,113.2
						c-72.5,41.2-142.8,86.4-215.9,126.8L711,725l-13.9,7.2l-27.8,14.4L641,759.9l-14.2,6.7l-14.5,6.1l-28.8,12.2L554.2,796
						l-14.6,5.5l-14.8,5l-29.7,10c-79.7,24.7-161.6,42.9-244.6,52.2c-41.4,5.2-83.1,7.6-124.8,8.7l-31.3,0.3
						c-10.4,0.1-20.9-0.4-31.3-0.6l-15.6-0.4c-5.2-0.1-10.4-0.6-15.6-0.8L0.6,874.2z"/>
					<path class="st5" d="M0.5,906.9c168.3,15,339.2-6.5,499.6-58.7c80.1-26.6,157.8-60.3,231.3-101.9
						c73.6-41.3,144.4-87.4,216.9-130.8c72.4-43.6,146.7-83.8,220.6-124.6c36.9-20.5,73.8-41.1,109.8-63s71.1-45.5,107.5-67.1
						c18.2-10.7,36.8-20.9,55.7-30.3c19-9.3,38.6-17.5,58.5-24.7c20-6.9,40.4-12.6,61.2-16.9c20.8-4.1,42-6.5,63.2-5.9
						c5.3,0,10.6,0.6,15.9,0.9c5.3,0.7,10.6,1.1,15.8,2.2c10.5,1.7,20.8,4.4,30.9,7.9c10.1,3.5,19.8,7.8,29.1,13.1l6.9,4.1
						c2.3,1.3,4.4,3,6.6,4.4c4.5,2.9,8.5,6.3,12.7,9.6s8.4,6.5,12.4,10s7.9,7.1,11.7,10.8c7.6,7.4,14.9,15,22.1,22.9
						c14.2,15.6,28.1,31.6,42,47.5c27.7,31.9,55.2,63.9,84.8,94c29.6,29.9,60.6,59.1,97,80.3c36.2,21.5,76,36.7,117.1,45.6
						c41.1,8.9,83.5,11.9,125.6,10.6s84.1-6.9,125.4-15.1c41.3-8.4,82.2-19.1,122.3-32c20.1-6.4,40-13.3,59.8-20.7
						c19.7-7.4,39-15.9,58.4-24.4c38.5-17,77.9-33.8,119.9-40.6c21-3.3,42.2-4.1,63.4-2.5c21.1,1.7,42,5.1,62.6,10.2
						c41.1,10,80.8,24.8,120.7,38.4c20,6.9,40.1,13,60.3,19.2s40.3,12.4,60.6,18.3c40.5,12,81.2,23.1,122.4,32.2
						c41.2,9.2,83,15.4,124.8,21s83.9,9.6,126,12.5c84.3,5.7,168.8,5.8,253.1,0.5c-84.3,5.6-168.9,5.7-253.1,0.3
						c-42.1-2.7-84.2-6.8-126.1-12.1c-41.9-5.5-83.7-11.5-125-20.6s-82.1-20.1-122.6-32.1c-20.3-6-40.4-12.3-60.6-18.4
						s-40.4-12.2-60.4-19.1c-40-13.5-79.6-28.3-120.6-38.2c-20.4-5.1-41.3-8.5-62.3-10.1c-21-1.6-42.1-0.7-62.9,2.6
						c-41.6,6.8-80.8,23.5-119.3,40.5c-19.3,8.5-38.7,17-58.4,24.5c-19.8,7.5-39.7,14.4-59.9,20.8c-40.2,13-81.1,23.7-122.6,32.2
						c-41.4,8.3-83.5,13.9-125.8,15.3s-84.8-1.4-126.2-10.5s-81.5-24.2-118-45.8c-18.3-10.8-35.5-23.2-51.5-37.2
						c-16-13.8-31.4-28.4-46.2-43.5c-29.6-30.2-57.3-62.2-85-94.1c-13.8-15.9-27.7-31.9-41.9-47.5c-7.1-7.8-14.4-15.4-21.9-22.7
						c-3.8-3.7-7.6-7.2-11.6-10.7c-3.9-3.5-8.2-6.6-12.3-9.9c-4.1-3.3-8.1-6.7-12.5-9.5c-2.2-1.4-4.3-3.1-6.5-4.4l-6.8-4
						c-9.1-5.1-18.7-9.5-28.6-12.9c-9.9-3.5-20.1-6.1-30.4-7.8c-5.1-1-10.4-1.5-15.6-2.1c-5.2-0.3-10.4-0.9-15.7-0.9
						c-42.1-1.2-83.7,9.1-123.4,22.5c-19.8,7.1-39.3,15.3-58.2,24.5c-18.9,9.3-37.4,19.5-55.6,30.2c-36.3,21.4-71.4,44.9-107.5,66.9
						s-73,42.5-110,63c-74,40.7-148.3,80.8-220.7,124.3c-72.4,43.2-143.2,89.4-217,130.6c-73.6,41.5-151.5,75.3-231.7,101.8
						C339.8,901.4,168.8,922.4,0.5,906.9z"/>
					<path class="st5" d="M0.4,939.6l32,2.8c5.3,0.4,10.6,1.1,16,1.3l16,0.7l16,0.7c5.3,0.3,10.7,0.5,16,0.5l32.1,0.2
						c2.7,0,5.4,0.1,8,0l8-0.3l16-0.6c10.7-0.4,21.4-0.6,32-1.6l32-2.4c10.6-1,21.3-2.4,31.9-3.5l15.9-1.8l15.9-2.4l31.7-4.9l31.5-6
						c5.2-1.1,10.5-1.9,15.7-3.1l15.6-3.6c41.8-9.1,82.8-21.3,123.4-34.6l30.3-10.6l7.6-2.6l7.5-2.9l14.9-5.8l14.9-5.8l7.5-2.9
						l7.3-3.2l29.4-12.8c4.9-2.1,9.8-4.3,14.6-6.7l14.5-6.9c9.6-4.7,19.4-9,28.8-14.2l28.4-14.9c4.8-2.4,9.4-5.1,14.1-7.7
						c4.7-2.6,9.4-5.2,14-7.8c74.4-42.2,145.8-89.4,218.2-135.1c72.4-45.9,145.8-89.9,217.9-135.9c36-23.1,71.7-46.7,106.3-71.7
						c34.7-25,68.3-51.6,103.6-75.9c17.6-12.2,35.8-23.6,54.4-34.2c18.7-10.6,38-20,57.8-28.1c19.8-8.3,40.4-14.4,61.2-19.7
						c10.5-2.4,21.1-4.3,31.7-5.7c10.7-1.2,21.4-1.8,32.2-1.7c21.5,0.4,43.1,4,63.3,11.7c20.3,7.4,38.6,19.7,54.7,33.8
						c16.1,14.1,30.4,30.5,43.8,47.2c13.4,16.7,26.3,33.8,39.2,50.9c25.8,34.2,51.2,68.6,78.8,101.2c13.8,16.3,28.1,32.2,43.2,47.3
						c7.5,7.6,15.4,14.8,23.5,21.7c8.3,6.7,16.6,13.3,25.4,19.3c17.5,12.2,36.1,22.7,55.5,31.6c19.4,8.9,39.4,16.2,60,21.9
						c41.1,11.5,83.8,16.5,126.5,17.1c42.7,0.2,85.4-3.5,127.4-11.1c42.1-7.5,83.6-17.9,124.2-31.1c20.3-6.5,40.5-13.7,60.3-21.6
						c19.9-7.8,39.2-17,58.5-26.2c19.3-9.2,38.6-18.6,58.4-26.7s40.3-14.9,61.3-19.2c21.1-4.2,42.6-5.7,64.1-4.5
						c21.4,1.3,42.7,4.5,63.5,9.7c41.7,10,81.8,25.3,122.3,39.1c20.2,7,40.6,13.3,61.1,19.4s40.9,12.5,61.4,18.5
						c41,12,82.4,23,124.2,31.9c41.8,9,84.2,14.7,126.7,19.8s85.1,8.7,127.8,11.1c85.4,4.7,171.1,4.5,256.5-0.7
						c-85.4,5.4-171.1,5.9-256.5,1.4c-42.7-2.3-85.3-5.9-127.9-10.7c-42.5-5-85-10.5-126.9-19.4S3140,631.9,3099,620
						c-20.6-6-41-12.3-61.5-18.5s-41-12.4-61.2-19.4c-40.5-13.9-80.5-29.1-122.1-39c-20.7-5.1-41.9-8.3-63.2-9.6
						c-21.3-1.2-42.7,0.3-63.6,4.5c-20.9,4.2-41.2,11-60.9,19.1s-39,17.5-58.3,26.7s-38.7,18.5-58.6,26.3s-40.1,15.1-60.4,21.7
						c-40.7,13.3-82.3,23.7-124.5,31.3c-42.2,7.7-85,11.5-127.9,11.3c-42.8-0.5-85.8-5.5-127.2-17.1c-20.7-5.7-40.9-13-60.4-22
						c-19.6-8.9-38.3-19.5-56-31.8c-8.9-6-17.3-12.7-25.7-19.5c-8.2-7-16.1-14.2-23.7-21.8c-15.2-15.2-29.6-31.1-43.4-47.4
						c-27.7-32.7-53.2-67.2-79-101.3c-12.9-17.1-25.8-34.1-39.1-50.8C1769,346.1,1755,330,1739,316s-33.8-26-53.8-33.3
						c-19.8-7.7-41-11.1-62.3-11.6c-10.6-0.1-21.3,0.4-31.8,1.6c-10.6,1.3-21,3.2-31.4,5.6c-20.7,5.2-41.1,11.3-60.8,19.5
						c-19.7,8.1-39,17.4-57.5,27.9c-18.5,10.5-36.5,21.9-54.1,34c-35.2,24.2-68.9,50.6-103.6,75.7c-34.7,25.1-70.5,48.6-106.5,71.7
						c-72.2,46-145.6,89.9-217.9,135.7c-72.4,45.5-143.8,92.7-218.4,134.9c-4.7,2.7-9.3,5.3-14,7.8c-4.7,2.6-9.3,5.2-14.1,7.7
						l-28.5,14.9c-9.4,5.1-19.2,9.5-28.8,14.1l-14.5,6.9c-4.8,2.3-9.7,4.6-14.6,6.7l-29.5,12.7l-7.4,3.2l-7.5,2.9l-15,5.8l-14.9,5.8
						l-7.5,2.9l-7.6,2.6l-30.3,10.6c-40.7,13.2-81.8,25.3-123.7,34.3l-15.7,3.6c-5.2,1.2-10.5,2-15.8,3.1l-31.5,5.9l-31.7,4.8
						l-15.9,2.4l-15.9,1.8c-10.6,1.1-21.3,2.5-31.9,3.4l-32,2.3c-10.7,1-21.4,1.1-32,1.5l-16,0.5l-8,0.3c-2.7,0-5.4,0-8,0L96.5,946
						c-5.4,0-10.7-0.3-16-0.5l-16-0.8l-16-0.8c-5.3-0.2-10.7-0.9-16-1.3L0.4,939.6z"/>
					<path class="st5" d="M0.3,972.3l32.4,3.4c5.4,0.5,10.8,1.3,16.2,1.5l16.2,1l16.2,1l8.1,0.5c2.7,0.1,5.4,0.1,8.1,0.2l32.5,0.5
						c5.4,0.2,10.8,0,16.3-0.2l16.3-0.5l16.3-0.5c5.4-0.1,10.8-0.7,16.2-1l32.5-2.3l32.3-3.6c5.4-0.6,10.8-1.1,16.1-1.9l16.1-2.5
						c10.7-1.7,21.5-3.1,32.1-5.1c21.3-4.2,42.6-7.9,63.7-13.2l15.8-3.7l7.9-1.9l7.8-2.1l31.4-8.6c5.3-1.3,10.4-3,15.6-4.7l15.5-4.9
						c10.3-3.3,20.7-6.4,30.9-10.2l30.6-10.9c10.2-3.8,20.2-7.9,30.3-11.9l15.1-6c5-2,10-4.3,14.9-6.5l29.8-13.1l29.3-14.1l14.6-7.1
						l14.4-7.6l28.8-15.2c9.5-5.3,19-10.5,28.3-16c75.2-43.3,147.3-91.7,219.6-139.8c72.1-48.3,144.3-96.4,214.3-147.7
						c34.9-25.7,69.3-52.1,102.4-80.2c33.1-28,65.3-57.2,99.5-84c17-13.5,34.7-26.1,53-38c18.3-11.8,37.4-22.4,57.1-31.4
						c19.7-9.4,40.4-16.3,61.3-22.3c21.1-5.8,42.8-8.8,64.7-8.8c10.9,0.2,21.8,1.2,32.6,3.2c10.7,2.1,21.3,5.3,31.4,9.4
						c20.3,8.4,38.5,21.4,53.9,36.7c15.6,15.3,29,32.6,41.5,50.4s24.5,35.9,36.4,54c23.8,36.3,47.1,72.9,72.7,107.9
						c12.8,17.5,26.1,34.6,40.3,50.9c14,16.5,29.6,31.6,46.5,45.1c16.9,13.5,35,25.4,54,35.7c19.1,10.2,38.9,18.9,59.4,25.9
						c41,13.9,84,21.5,127.2,24c43.2,2.4,86.7-0.2,129.5-6.5c42.9-6.5,85.1-16.5,126.3-29.8c20.6-6.6,41-14.1,61-22.3
						c20-8.2,39.5-17.8,58.7-27.8s38.4-20.2,58.2-29.3s40.2-16.9,61.3-22.1c10.6-2.6,21.3-4.5,32.2-5.6c5.4-0.6,10.9-0.7,16.3-1.1
						s10.9,0,16.3,0c21.8,0.6,43.4,3.9,64.6,8.8c42.4,9.8,83.1,25.5,124,39.7c20.4,7.2,41.1,13.7,61.9,19.8s41.5,12.6,62.4,18.6
						c41.7,12,83.6,23,126.1,31.7c42.5,8.8,85.6,14,128.7,18.6s86.4,7.7,129.8,9.7c86.7,3.8,173.5,3.2,260.2-1.9
						c-86.6,5.3-173.5,6.2-260.2,2.6c-43.3-1.9-86.6-5-129.8-9.4c-43.1-4.5-86.3-9.6-128.9-18.3s-84.6-19.6-126.3-31.6
						c-20.9-6-41.6-12.4-62.4-18.6s-41.6-12.6-62-19.8c-41-14.2-81.6-29.9-123.8-39.5c-21.1-4.8-42.6-8.1-64.2-8.7
						c-5.4,0-10.8-0.3-16.2,0s-10.8,0.5-16.2,1.1c-10.7,1.1-21.4,3-31.9,5.6c-21,5.2-41.3,12.9-60.9,22s-38.8,19.3-58.1,29.3
						s-38.8,19.7-58.9,27.9c-20.1,8.3-40.5,15.8-61.2,22.4c-41.4,13.5-83.7,23.6-126.7,30.1c-43,6.4-86.6,9.1-130,6.6
						c-43.4-2.5-86.6-10-127.9-24c-20.6-7.1-40.6-15.7-59.8-26c-19.2-10.3-37.4-22.4-54.5-36c-17-13.6-32.7-28.8-46.9-45.4
						c-14.3-16.4-27.7-33.5-40.5-51.1c-25.7-35.1-49.1-71.7-72.9-108c-11.9-18.1-23.9-36.2-36.3-54c-12.4-17.8-25.7-34.9-41.1-50
						s-33.1-27.9-53-36.2c-10-4.1-20.3-7.2-30.8-9.3c-10.6-1.9-21.3-3-32.1-3.2c-21.6,0-43.1,2.9-63.9,8.6
						c-20.8,6-41.3,12.8-60.9,22.1c-19.7,9-38.7,19.5-56.8,31.3c-18.2,11.7-35.8,24.3-52.8,37.8c-34.2,26.7-66.3,55.8-99.4,83.9
						s-67.6,54.5-102.6,80.2c-70.1,51.2-142.4,99.3-214.6,147.5c-72.3,48-144.5,96.4-219.8,139.6c-9.4,5.4-18.9,10.7-28.4,16
						l-28.8,15.2l-14.4,7.6l-14.7,7.1l-29.4,14l-29.8,13c-5,2.1-9.9,4.4-15,6.5l-15.1,6c-10.1,4-20.1,8.1-30.3,11.9L513.4,915
						c-10.2,3.8-20.6,6.8-30.9,10.1l-15.6,4.8c-5.2,1.6-10.3,3.3-15.6,4.6l-31.4,8.5l-7.9,2.1l-7.9,1.8l-15.9,3.7
						c-21.1,5.2-42.5,8.9-63.8,13c-10.7,2-21.5,3.3-32.2,5l-16.1,2.4c-5.4,0.8-10.8,1.2-16.2,1.8l-32.4,3.5l-32.5,2.2
						c-5.4,0.3-10.8,0.9-16.2,1l-16.3,0.4l-16.3,0.4c-5.4,0.1-10.8,0.3-16.3,0.2L97.6,980c-2.7-0.1-5.4,0-8.1-0.2l-8.1-0.5l-16.2-1
						l-16.2-1c-5.4-0.3-10.8-1.1-16.2-1.6L0.3,972.3z"/>
					<path class="st5" d="M0.3,1005l32.8,3.9l8.2,1l4.1,0.5l4.1,0.3l16.5,1.2l16.5,1.2l8.2,0.6l8.3,0.2l33,0.8
						c5.5,0.3,11-0.1,16.5-0.1l16.5-0.4l16.5-0.4c5.5-0.3,11-0.7,16.5-1c11-0.8,22-1.4,33-2.3l32.8-3.6
						c43.7-5.5,87.2-12.8,129.9-23.5l16.1-3.8c5.4-1.2,10.6-2.9,15.9-4.3l31.8-8.9l31.5-10l15.7-5l15.5-5.6
						c10.3-3.8,20.7-7.4,31-11.3l30.7-12.3c5.1-2.1,10.3-4,15.3-6.3l15.1-6.7c10-4.5,20.2-8.8,30.1-13.5c19.8-9.7,39.7-19,59-29.6
						c9.7-5.2,19.5-10.2,29.1-15.6c9.6-5.5,19.2-10.8,28.7-16.4c76.1-44.5,148.9-94.2,220.8-145s142.8-103.4,210.4-159.8
						c16.9-14.1,33.6-28.5,50-43.2c8.2-7.3,16.3-14.8,24.4-22.3c8.1-7.5,16-15.1,23.8-22.9c31.6-30.7,62.2-62.5,95.4-91.6
						c8.2-7.4,16.8-14.3,25.2-21.4c8.8-6.7,17.3-13.7,26.4-20c8.8-6.6,18.3-12.4,27.5-18.5c4.7-2.9,9.5-5.5,14.3-8.3
						c2.4-1.4,4.8-2.8,7.2-4.1l7.4-3.7l7.4-3.7c2.5-1.3,4.9-2.5,7.5-3.6l15.2-6.6c2.5-1.2,5.1-2.1,7.7-3l7.8-2.8
						c5.2-1.9,10.4-3.8,15.7-5.3c5.3-1.7,10.7-2.9,16-4.3c2.7-0.6,5.4-1.1,8.1-1.7s5.4-1.1,8.2-1.5c10.9-1.8,22-2.7,33.1-2.7
						c11.1,0,22.2,1.1,33.1,3.3c10.9,2.3,21.5,5.7,31.7,10.2c10.1,4.7,19.7,10.4,28.6,17.1c2.3,1.6,4.3,3.5,6.4,5.3s4.3,3.5,6.3,5.5
						c4.1,3.8,8,7.7,11.7,11.8c15,16.4,27.5,34.7,39.1,53.5c11.6,18.8,22.7,37.8,33.6,57c21.8,38.3,43,76.9,66.6,114.1
						c11.8,18.6,24.1,36.8,37.4,54.3c13.1,17.6,27.7,34,43.8,49c32.5,29.7,70,53.3,110.8,69.8c40.6,16.8,83.8,26.7,127.5,31.4
						c43.8,4.4,87.9,3.9,131.6-1.5c43.7-5.3,86.8-14.7,128.7-28.1c20.9-6.7,41.6-14.3,61.9-22.8c20.2-8.7,40-18.4,59.1-29.2
						c19.3-10.6,38.3-21.7,58-31.8s39.9-19.2,61.1-25.3c5.4-1.4,10.6-3.1,16.1-4.1l8.1-1.7c2.7-0.5,5.5-0.8,8.2-1.3s5.5-0.8,8.2-1.1
						l8.3-0.6l8.3-0.6h8.3c22.1,0,44.1,2.9,65.7,7.6c43.2,9.4,84.4,25.5,125.9,40.2c20.7,7.4,41.7,14.2,62.8,20.3l63.3,18.8
						c42.3,12.1,85,23.1,128.2,31.6c21.6,4.3,43.3,7.8,65.2,10.5l32.8,3.8c11,1.1,21.9,2.3,32.9,3.3c43.8,4,87.8,6.8,131.8,8.4
						c88,3.2,176.2,1.6,264.2-3c-87.9,4.9-176.1,6.7-264.2,3.8c-44-1.5-88-4.1-131.9-8c-11-0.9-21.9-2.1-32.9-3.2l-32.8-3.7
						c-21.9-2.7-43.6-6.2-65.3-10.4c-43.3-8.4-86-19.4-128.4-31.5l-63.4-18.7c-21.2-6.1-42.2-12.8-62.9-20.3
						c-41.5-14.7-82.7-30.7-125.7-40c-21.5-4.6-43.4-7.5-65.3-7.5h-8.2l-8.2,0.6l-8.2,0.6c-2.7,0.3-5.4,0.8-8.1,1.1
						s-5.4,0.7-8.1,1.3l-8,1.7c-5.4,1-10.6,2.7-15.9,4.1c-21.1,6.1-41.2,15.3-60.7,25.3s-38.6,21.2-57.9,31.8
						c-19.2,10.9-39,20.7-59.3,29.4c-20.3,8.6-41,16.3-62,23c-42.1,13.5-85.3,23-129.2,28.3c-43.9,5.4-88.2,6-132.1,1.6
						c-43.9-4.6-87.4-14.6-128.3-31.4c-41.1-16.6-78.9-40.4-111.7-70.3c-16.2-15.1-31-31.6-44.2-49.4
						c-13.3-17.6-25.8-35.9-37.6-54.5c-23.6-37.3-44.9-75.9-66.8-114.2c-10.9-19.1-22-38.2-33.5-56.9s-24-36.9-38.8-53.1
						c-3.7-4-7.5-7.9-11.5-11.7c-2-1.9-4.1-3.6-6.2-5.4s-4.1-3.6-6.3-5.2c-8.7-6.6-18.1-12.2-28-16.8c-10-4.4-20.4-7.8-31-10
						c-10.7-2.1-21.6-3.2-32.5-3.3c-10.9,0-21.9,0.8-32.7,2.6c-2.7,0.4-5.4,0.9-8.1,1.4s-5.4,1-8,1.7c-5.3,1.4-10.7,2.6-15.9,4.3
						c-5.3,1.5-10.4,3.4-15.6,5.2l-7.8,2.8c-2.6,0.9-5.2,1.8-7.7,3l-15.1,6.5c-2.6,1-5,2.3-7.4,3.5l-7.3,3.7l-7.3,3.7
						c-2.5,1.3-4.8,2.7-7.2,4.1c-4.7,2.8-9.5,5.4-14.2,8.3c-9.2,6-18.5,11.8-27.4,18.3c-9.1,6.2-17.6,13.2-26.3,19.9
						c-8.4,7.1-17,14-25.2,21.3c-33.1,29-63.8,60.7-95.4,91.4c-7.9,7.7-15.9,15.3-23.9,22.9s-16.2,15-24.4,22.3
						c-16.4,14.7-33.1,29.1-50.1,43.2c-67.8,56.4-138.8,108.8-210.7,159.7S836.2,791.3,760,835.8c-9.5,5.5-19.1,11-28.7,16.4
						s-19.4,10.4-29.1,15.6c-19.3,10.6-39.3,19.9-59.1,29.6c-9.9,4.8-20.1,9-30.2,13.5l-15.1,6.7c-5,2.3-10.2,4.2-15.3,6.3
						l-30.7,12.3c-10.3,3.9-20.7,7.5-31.1,11.2l-15.6,5.6l-15.8,5l-31.5,9.9l-31.9,8.7c-5.3,1.4-10.6,3-16,4.3l-16.1,3.7
						c-42.8,10.5-86.4,17.7-130.1,23.1l-32.9,3.5c-11,0.9-22,1.4-33,2.2c-5.5,0.3-11,0.8-16.5,1l-16.5,0.3l-16.5,0.3
						c-5.5,0-11,0.4-16.5,0.1l-33-0.9l-8.3-0.2l-8.2-0.6l-16.5-1.2l-16.5-1.2l-4.1-0.4l-4.1-0.5l-8.2-1L0.3,1005z"/>
					<path class="st5" d="M0.2,1037.7c44.2,6.8,88.9,10.6,133.7,11.4c11.2,0.2,22.4-0.3,33.6-0.3c5.6-0.1,11.2-0.1,16.8-0.3l16.7-1
						l16.8-1c5.6-0.4,11.2-0.6,16.7-1.3l33.4-3.6l8.3-0.9l8.3-1.3l16.6-2.5c11-1.7,22.1-3.2,33.1-5.6l32.9-6.4
						c10.9-2.5,21.8-5.2,32.6-7.7c5.4-1.3,10.9-2.5,16.3-3.9l16.2-4.5c10.7-3.1,21.6-5.9,32.3-9.2c21.3-6.9,42.7-13.4,63.6-21.5
						c84.3-30.2,164.8-70,241.9-115.4c77-45.7,150.5-97,222-150.8c71.4-54,140.8-110.7,205.8-172.2c16.2-15.4,32.2-31.1,47.8-47.1
						c15.6-16,30.9-32.4,45.8-49.1c29.9-33.3,59.3-67.1,91.3-98.6c16.1-15.6,32.5-30.9,50.3-44.7l6.6-5.3l6.8-5
						c4.6-3.3,9-6.6,13.7-9.8c9.4-6.1,18.7-12.4,28.7-17.7c9.6-5.8,19.9-10.4,30-15.3c5.1-2.3,10.4-4.2,15.6-6.4l7.8-3.1l8-2.7
						c2.7-0.9,5.3-1.8,8.1-2.5s5.4-1.6,8.1-2.3c5.5-1.2,10.9-2.7,16.5-3.5c5.5-1.1,11.1-1.7,16.7-2.4c2.8-0.3,5.6-0.4,8.4-0.6
						l4.2-0.3h4.2c22.5-0.1,45.3,4.5,65.6,14.5l7.5,3.9l7.2,4.5c1.2,0.8,2.4,1.5,3.6,2.3l3.4,2.6c2.2,1.7,4.6,3.4,6.7,5.2
						c4.1,3.8,8.5,7.5,12.4,11.5c3.9,4.1,7.7,8.2,11.3,12.6c14.4,17.4,26,36.8,36.8,56.4s20.9,39.7,30.8,59.7
						c19.9,40.1,39,80.6,60.6,119.8c10.8,19.6,22.1,38.9,34.4,57.5c12,18.8,25.8,36.5,41,52.8c30.5,32.6,67.5,58.7,107.6,78.3
						c40.1,19.5,83.4,32.2,127.6,39c88.4,13.7,179.6,4.6,264.8-21.7c21.3-6.6,42.3-14.3,62.9-23.2c5.1-2.2,10.2-4.5,15.3-6.8
						s10.1-4.8,15-7.3c9.9-5.2,19.7-10.5,29.3-16.2c19.3-11.3,38.3-23.2,57.8-34.3s39.6-21.2,60.8-28.7c2.6-1,5.3-1.8,8-2.6l8.1-2.4
						c5.4-1.4,10.9-2.7,16.4-3.8l8.3-1.4c2.8-0.5,5.5-0.9,8.4-1.1l8.4-0.7c2.8-0.2,5.6-0.6,8.4-0.5c22.5-0.9,45,1.5,66.9,6
						c44.1,8.9,86,25.5,128,40.6c21,7.7,42.2,14.8,63.8,20.9l64.4,19c43.1,12.2,86.4,23.3,130.4,31.6c43.9,8.6,88.5,13,133.1,16.6
						s89.3,5.8,134.1,7c89.5,2.3,179,0.1,268.4-4.3c-89.4,4.6-179,7.1-268.5,5c-44.7-1-89.5-3.2-134.1-6.6
						c-44.6-3.5-89.3-7.8-133.3-16.3c-44-8.2-87.5-19.3-130.6-31.5l-64.4-18.9c-21.5-6.1-42.8-13.2-63.9-20.8
						c-42.1-15.1-83.9-31.6-127.8-40.4c-21.9-4.4-44.2-6.8-66.5-5.9c-2.8,0-5.6,0.2-8.3,0.5l-8.3,0.7c-2.8,0.2-5.5,0.6-8.3,1.1
						l-8.3,1.3c-5.4,1.2-10.9,2.5-16.3,3.8l-8,2.4c-2.7,0.8-5.3,1.6-7.9,2.6c-21,7.4-41,17.5-60.5,28.6s-38.4,23-57.7,34.3
						c-9.7,5.7-19.5,11.1-29.4,16.3c-5,2.5-10.1,5-15.1,7.4c-5.1,2.4-10.2,4.6-15.4,6.9c-20.6,8.9-41.6,16.6-63,23.3
						c-85.6,26.5-177.1,35.7-265.9,22.1c-44.3-6.8-87.8-19.7-128.3-39.1c-40.4-19.6-77.7-45.9-108.5-78.8c-1.9-2.1-3.9-4.1-5.8-6.2
						l-5.5-6.4c-3.8-4.2-7.1-8.7-10.7-13.1s-6.7-9-10-13.6l-9.5-13.9c-12.4-18.7-23.8-38-34.6-57.7c-21.6-39.3-40.8-79.8-60.7-119.9
						c-9.9-20-20.1-40-30.7-59.7c-10.6-19.7-22.2-38.8-36.4-56c-3.5-4.3-7.2-8.4-11.1-12.4c-3.8-4.1-8.1-7.6-12.2-11.4
						c-2.1-1.8-4.4-3.4-6.6-5.1l-3.3-2.5c-1.1-0.8-2.3-1.5-3.5-2.3l-7-4.4l-7.4-3.8c-19.8-9.8-42.1-14.4-64.3-14.3h-4.2l-4.2,0.2
						c-2.8,0.2-5.6,0.3-8.3,0.5c-5.5,0.6-11.1,1.2-16.5,2.3c-5.5,0.8-10.9,2.3-16.3,3.5c-2.7,0.7-5.4,1.5-8,2.3s-5.3,1.5-8,2.5
						l-7.9,2.7l-7.8,3.1c-5.1,2.1-10.4,4-15.5,6.3c-10,4.9-20.2,9.4-29.8,15.2c-9.9,5.2-19.1,11.5-28.5,17.5
						c-4.6,3.1-9.1,6.5-13.6,9.7l-6.8,4.9l-6.6,5.2c-17.6,13.7-34.1,28.9-50.1,44.4c-32,31.3-61.3,65.1-91.3,98.4
						c-15,16.7-30.3,33-45.9,49.1c-15.7,16-31.7,31.7-47.9,47.1c-65.2,61.5-134.7,118.3-206.2,172.2
						c-71.6,53.8-145.2,105-222.3,150.7c-77.2,45.4-157.9,85.2-242.4,115.3c-20.9,8-42.4,14.4-63.7,21.3
						c-10.7,3.3-21.5,6.1-32.3,9.1l-16.2,4.5c-5.4,1.4-10.9,2.6-16.3,3.9c-10.9,2.5-21.8,5.2-32.7,7.6l-33,6.3
						c-11,2.3-22.1,3.8-33.1,5.5l-16.6,2.5l-8.3,1.2l-8.3,0.9l-33.4,3.5c-5.6,0.7-11.2,0.8-16.8,1.2l-16.8,1l-16.8,1
						c-5.6,0.2-11.2,0.2-16.8,0.3c-11.2,0.1-22.4,0.4-33.6,0.3C89,1048.5,44.4,1044.6,0.2,1037.7z"/>
					<path class="st5" d="M0.1,1070.4c44.9,7.6,90.3,12,135.8,13.2c11.4,0.1,22.8-0.2,34.1-0.2c5.7-0.1,11.4,0.1,17-0.3l17-1l17-1
						l8.5-0.5c2.8-0.2,5.7-0.6,8.5-0.9l33.9-3.6c90.3-11.5,179-34.2,264.1-66.3l16-5.9c5.3-2,10.5-4.3,15.8-6.4l31.7-13l31.1-14.1
						c5.2-2.4,10.4-4.6,15.5-7.1l15.3-7.6c10.2-5.1,20.5-10,30.5-15.3l30.1-16.1c20-10.8,39.7-22.3,59.2-34
						c77.8-47.1,152-100.2,222.9-157.3s138.3-118.5,200.5-184.9c31.2-33.1,60.7-67.8,89-103.5c14.2-17.8,28.3-35.6,42.7-53.3
						s29.2-35,44.7-51.7c31-33.3,64.9-64.6,104-88.4l7.3-4.5c2.4-1.5,5-2.7,7.5-4.1l15.1-8.1l15.7-6.9c2.6-1.1,5.2-2.4,7.9-3.4l8-3
						c10.7-3.9,21.8-7,33-9.2c5.6-1.3,11.3-1.8,17-2.7c5.7-0.4,11.4-1,17.2-0.9c5.7-0.2,11.5,0.4,17.2,0.7c5.7,0.9,11.4,1.4,17,2.9
						c5.7,1.1,11.1,3.1,16.6,4.8c5.3,2.3,10.7,4.2,15.7,7.2c2.5,1.4,5.2,2.6,7.5,4.3l7.2,4.8c2.4,1.6,4.5,3.5,6.8,5.3
						c2.3,1.7,4.5,3.6,6.5,5.6c8.5,7.8,16.2,16.3,23,25.6c13.7,18.4,24.5,38.7,34.4,59.2c9.9,20.5,19.1,41.4,28.1,62.3
						c18,41.8,35.2,84,54.7,125.1c9.8,20.5,20.2,40.8,31.5,60.5c11.3,19.7,23.5,38.9,38,56.3c29,35.1,64.3,64.4,104,86.6
						c39.5,22.4,82.8,37.7,127.2,47.1c44.5,9.2,90.1,12.6,135.5,10.2c68.2-3.5,135.3-19.1,198-46.2c20.9-8.9,41-19.4,60.4-31.2
						c19.4-11.8,38.3-24.6,57.6-36.6s39.2-23.5,60.4-32.1s43.5-14.6,66.3-16.3c22.8-1.9,45.8-0.1,68.2,3.9
						c45,8.2,87.6,25.1,130.3,40.7c42.5,16.3,86.6,27.7,130.2,40.8c43.8,12.3,88,23.5,132.7,31.7c22.4,4.1,44.9,7.5,67.5,9.9
						c11.3,1.2,22.6,2.1,34,3.2l34,2.6c45.4,3.1,90.9,4.9,136.4,5.6c91,1.5,182-1.3,273-5.5c-90.9,4.4-181.9,7.5-273,6.3
						c-45.5-0.6-91-2.3-136.4-5.2l-34.1-2.5c-11.3-1-22.7-1.9-34-3.1c-22.6-2.3-45.2-5.7-67.6-9.8c-44.8-8.2-89-19.3-132.9-31.6
						c-43.6-13-87.8-24.4-130.4-40.7c-42.7-15.6-85.3-32.3-130-40.5c-22.3-4-45.1-5.7-67.7-3.8c-22.6,1.7-44.7,7.6-65.7,16.2
						s-40.7,20-60,32s-38.2,24.8-57.6,36.7c-19.4,11.9-39.7,22.5-60.7,31.5c-63,27.2-130.3,43-198.8,46.6
						c-45.6,2.5-91.4-0.9-136.1-10.1c-44.6-9.4-88.2-24.8-128-47.3c-40-22.3-75.6-51.8-104.8-87.1c-14.6-17.6-27-37-38.3-56.7
						c-11.3-19.7-21.8-40.1-31.7-60.7c-19.6-41.2-36.8-83.4-54.9-125.2c-9-20.9-18.3-41.7-28-62.2s-20.5-40.6-34.1-58.7
						c-6.7-9.1-14.3-17.5-22.6-25.2c-2-2-4.2-3.8-6.4-5.5c-2.2-1.7-4.3-3.6-6.7-5.2l-7-4.7c-2.3-1.6-4.9-2.8-7.3-4.2
						c-4.8-2.9-10.2-4.8-15.3-7c-5.4-1.7-10.6-3.7-16.2-4.7c-5.4-1.5-11.1-2-16.6-2.9c-5.6-0.3-11.2-0.9-16.9-0.7
						c-5.6-0.1-11.3,0.5-16.9,0.9c-5.6,0.8-11.2,1.4-16.7,2.6c-11.1,2.2-22,5.2-32.7,9.1l-8,3c-2.6,1-5.2,2.3-7.8,3.4l-15.5,6.9
						l-15,8c-2.5,1.4-5.1,2.6-7.5,4.1l-7.2,4.5c-38.8,23.6-72.6,54.6-103.6,87.8c-15.4,16.7-30.2,34-44.6,51.6s-28.6,35.3-42.8,53.1
						c-28.3,35.6-57.9,70.4-89.2,103.5c-62.4,66.4-130,127.9-201,184.9S860,844.8,782.1,891.9c-19.5,11.7-39.2,23.2-59.3,34
						L692.7,942c-10.1,5.3-20.4,10.2-30.6,15.3l-15.3,7.5c-5.1,2.5-10.4,4.7-15.5,7.1L600.1,986l-31.6,13
						c-5.3,2.1-10.5,4.4-15.8,6.4l-16,5.9c-85.3,31.9-174.2,54.4-264.6,65.7l-34,3.5c-2.8,0.3-5.6,0.6-8.5,0.8l-8.5,0.5l-17,0.9
						l-17,0.9c-5.7,0.3-11.4,0.2-17.1,0.3c-11.4,0-22.8,0.2-34.1,0.1C90.4,1082.7,45,1078.1,0.1,1070.4z"/>
					<path class="st5" d="M0,1103.1c45.5,8.6,91.6,13.6,138,14.8l34.7,0.3c11.6-0.3,23.1-0.9,34.7-1.3c11.6-0.2,23.1-1.6,34.6-2.6
						l17.3-1.5c5.8-0.5,11.5-1.5,17.2-2.2c46-5.4,91.4-14.9,136.2-26.5l16.8-4.4l8.4-2.2c2.8-0.8,5.5-1.7,8.3-2.5l33.1-10.2
						c11-3.6,21.9-7.5,32.8-11.3c5.5-1.9,11-3.7,16.4-5.8l16.2-6.2l16.2-6.3l8.1-3.1l8-3.4l31.9-13.6c10.6-4.7,21-9.7,31.5-14.5
						c5.2-2.5,10.5-4.8,15.7-7.4l15.5-7.8l15.5-7.8c5.2-2.6,10.4-5.2,15.4-8l30.5-16.6c10.2-5.5,20-11.6,30.1-17.3l15-8.7l14.8-9.2
						c39.6-24.1,77.7-50.4,115.1-77.7l27.8-20.8l27.3-21.5c9.2-7,18-14.6,26.9-22s17.9-14.7,26.5-22.4
						c70.1-60.5,135.2-126.6,194.7-197.7l22-26.8l21.3-27.5c14.1-18.4,27.6-37.2,41-56c26.9-37.7,53.8-75.5,83.7-111
						c7.7-8.7,15.1-17.6,23.2-26c4-4.2,7.8-8.6,12-12.6l12.5-12.1c2-2.1,4.2-4,6.4-5.9l6.6-5.7c4.4-3.8,8.6-7.8,13.3-11.2l13.7-10.7
						c4.7-3.4,9.6-6.6,14.4-9.9l7.2-4.9l7.5-4.4c5.1-2.9,10-6,15.1-8.7c10.5-5,20.8-10.5,31.7-14.6c21.7-8.3,44.7-14,68.1-14.2
						c11.7-0.3,23.4,1,34.8,3.8c11.4,2.7,22.4,7.1,32.5,13l3.8,2.1c1.2,0.8,2.4,1.6,3.6,2.5c2.4,1.7,4.8,3.3,7.2,5.1
						c4.4,3.9,9.1,7.3,13.1,11.7c2,2.1,4.1,4.1,6.1,6.3s3.9,4.4,5.6,6.7c3.7,4.5,7.1,9.3,10.4,14.1c13.1,19.3,23,40.5,32.1,61.9
						c9.1,21.3,17.4,43,25.5,64.7c16.3,43.4,31.5,87.2,49.1,130c8.8,21.4,18.2,42.6,28.6,63.2s21.5,40.9,35,59.7
						c13.4,18.8,28.6,36.3,45.4,52.1c16.8,15.9,35,30.2,54.3,42.8c38.9,25,81.6,43.7,126.4,55.3c89.3,23.7,185,22,274-2.7
						c22.3-6.2,44.1-13.9,65.3-23c10.6-4.5,21.1-9.5,31.4-14.7c10.2-5.4,20.3-11,30-17.2c39.2-24.5,75.4-54,117.4-74.2
						c2.6-1.3,5.2-2.5,7.9-3.6l8-3.4c5.4-2.1,10.9-4,16.4-5.9c11.1-3.4,22.5-5.9,34.1-7.4c23.1-3.1,46.5-2.2,69.5,1.4
						c46,7.3,89.5,24.4,132.8,40.5c43.2,16.8,87.8,29.1,132.3,41.8c44.6,12.5,89.5,23.7,135.1,31.9c22.8,4.1,45.7,7.4,68.7,9.7
						s46.1,3.8,69.2,5.3c46.2,2.7,92.5,3.9,138.8,4.2c92.6,0.6,185.2-2.8,277.7-6.8c-92.5,4.2-185.1,7.9-277.7,7.5
						c-46.3-0.2-92.6-1.3-138.9-3.9c-23.1-1.4-46.2-2.9-69.3-5.1s-46-5.5-68.8-9.5c-45.6-8.1-90.6-19.3-135.3-31.8
						c-44.5-12.7-89.3-25-132.5-41.8c-43.4-16.1-86.8-33.1-132.5-40.3c-22.8-3.5-46.1-4.4-68.9-1.4c-22.9,2.8-45.1,10.1-65.8,20.2
						c-41.7,20.1-77.9,49.6-117.2,74.2c-9.8,6.2-19.9,11.9-30.2,17.3c-10.4,5.2-20.8,10.3-31.5,14.8c-21.3,9.2-43.2,16.9-65.6,23.2
						c-89.4,24.9-185.4,26.7-275.3,3c-45.1-11.7-88-30.4-127.2-55.5c-19.5-12.7-37.8-27-54.8-43c-17-15.9-32.3-33.5-45.8-52.5
						c-13.6-18.9-24.9-39.3-35.3-60s-19.9-42-28.7-63.4c-17.7-42.9-33-86.7-49.2-130c-8.1-21.7-16.5-43.3-25.4-64.6
						c-8.9-21.4-18.9-42.3-31.8-61.4c-3.3-4.8-6.6-9.4-10.3-13.9c-1.8-2.3-3.7-4.4-5.6-6.6c-1.9-2.2-4-4.1-6-6.2
						c-3.8-4.3-8.5-7.7-12.8-11.5c-2.3-1.7-4.7-3.3-7-4.9c-1.2-0.8-2.3-1.7-3.5-2.4l-3.7-2.1c-9.9-5.8-20.6-10.1-31.7-12.7
						c-11.1-2.7-22.5-4-34-3.8c-23,0.2-45.7,5.7-67.2,13.9c-10.8,4.1-21,9.5-31.4,14.4c-5.1,2.7-10,5.7-15,8.6l-7.5,4.4l-7.1,4.7
						c-4.8,3.3-9.6,6.4-14.3,9.8l-13.7,10.6c-4.6,3.4-8.9,7.4-13.3,11.1l-6.5,5.7c-2.2,1.9-4.4,3.8-6.4,5.9l-12.4,12.1
						c-4.2,4-8,8.4-12,12.5c-8.1,8.3-15.5,17.2-23.1,25.8c-29.8,35.4-56.7,73.1-83.7,110.8c-13.5,18.8-27,37.7-41.1,56l-21.3,27.5
						l-22.1,26.9c-59.6,71.1-124.8,137.3-195.1,197.8c-8.6,7.7-17.7,15-26.6,22.4s-17.8,14.9-26.9,22L937,820.8l-27.9,20.8
						c-37.4,27.3-75.6,53.6-115.3,77.6l-14.8,9.2l-15,8.7c-10,5.8-20,11.8-30.1,17.3L703.4,971c-5.1,2.8-10.2,5.4-15.4,8l-15.5,7.8
						l-15.5,7.8c-5.2,2.6-10.5,4.9-15.7,7.4c-10.5,4.8-21,9.8-31.6,14.5l-32,13.6l-8,3.4l-8.1,3.1l-16.2,6.2l-16.2,6.2
						c-5.4,2.1-10.9,3.8-16.4,5.8c-11,3.7-21.9,7.7-32.9,11.2l-33.3,10.1c-2.8,0.8-5.5,1.7-8.3,2.5l-8.4,2.2l-16.8,4.4
						c-44.9,11.5-90.4,20.8-136.4,26.2c-5.8,0.7-11.5,1.7-17.2,2.1l-17.3,1.5c-11.5,0.9-23.1,2.3-34.6,2.4
						c-11.6,0.4-23.1,1-34.7,1.3l-34.7-0.4C91.7,1116.9,45.5,1111.8,0,1103.1z"/>
					<path class="st5" d="M0.1,1092.9l33.6,4.9l8.4,1.2c2.8,0.4,5.6,0.8,8.4,1l16.9,1.5l16.9,1.5l8.5,0.7c2.8,0.3,5.6,0.2,8.5,0.4
						l34,1c5.6,0.3,11.3,0.1,17,0l17-0.4l17-0.4c5.7,0,11.3-0.7,17-1l33.9-2.4l33.7-4c5.6-0.7,11.3-1.3,16.9-2.1l16.8-2.8
						c11.2-1.9,22.4-3.6,33.5-5.8c22.1-4.8,44.4-9,66.3-14.9l16.5-4.2l8.2-2.1c2.7-0.7,5.4-1.6,8.2-2.4l32.6-9.6l8.1-2.4l8-2.7
						l16.1-5.4c10.7-3.7,21.6-6.9,32.1-11.1l31.8-11.8c5.3-1.9,10.6-4.1,15.8-6.2l15.6-6.4c21.1-8.3,41.6-17.8,62.4-26.9
						c41-19.1,81.6-39.3,121.3-61.2c79.4-43.7,155.2-93.6,226.9-149c35.8-27.7,70.5-56.9,103.9-87.5s65.6-62.5,96.4-95.7
						c15.4-16.6,30.4-33.6,45-50.8c14.7-17.3,28.8-35,42.8-52.7c28-35.6,55.9-71.5,86.3-105.1c3.8-4.3,7.7-8.3,11.6-12.5
						s7.8-8.3,11.8-12.2l12.1-12l12.6-11.5l6.3-5.7l6.6-5.4c4.4-3.6,8.7-7.3,13.2-10.8c9.2-6.7,18.1-13.8,27.8-19.7l7.1-4.6
						c2.3-1.6,4.8-3.1,7.3-4.4l14.9-8.4c1.2-0.7,2.5-1.4,3.7-2.1l3.8-1.8l7.7-3.6c5.2-2.4,10.2-5,15.6-7
						c21.1-8.7,43.4-14.5,66.1-16.3c11.4-0.7,22.9-0.3,34.2,1.3c11.3,1.9,22.4,5.1,32.9,9.6c10.4,4.8,20.2,10.8,29.2,18
						c2.3,1.6,4.3,3.8,6.5,5.6s4.3,3.8,6.3,5.9c4,4,7.8,8.4,11.5,12.7c14.6,17.6,26.2,37.4,36.5,57.6c10.4,20.2,19.8,40.9,29,61.6
						c18.4,41.4,35.7,83.4,55.6,124c9.9,20.3,20.5,40.4,32,59.8c11.3,19.5,24.5,38,39.2,55.1c7.3,8.6,15.3,16.6,23.4,24.4
						c8.3,7.6,16.8,15.1,25.8,22c17.8,13.9,36.9,26.1,56.9,36.6c20,10.5,40.8,19.4,62.2,26.8c21.4,7.3,43.3,13.1,65.5,17.3
						c44.4,8.7,89.8,11.4,135,9c45.2-2.4,90-10,133.5-22.8c21.7-6.4,43-14.1,63.8-23c10.4-4.4,20.6-9.3,30.7-14.4
						c5-2.6,10-5.3,14.9-8.1c4.9-2.7,9.8-5.6,14.6-8.6c19.4-11.7,38.3-24.1,57.8-35.8s39.6-22.5,60.8-30.5s43.8-13.1,66.6-13.8
						c22.8-0.9,45.5,1.9,67.7,7c44.4,10,86.3,28.1,128.4,44.6c21.1,8.4,42.3,16.1,63.9,22.9c21.6,7,43.1,13.8,64.8,20.4
						c43.4,13.1,87.1,24.8,131.6,33.6c22.2,4.4,44.5,7.9,67,10.6c11.3,1.3,22.5,2.3,33.8,3.5c11.3,0.9,22.6,2,33.9,2.8
						c45.2,3.4,90.4,5.4,135.7,6.3c90.6,1.8,181.2-1.1,271.7-5.9c-90.5,5.1-181.1,8.2-271.7,6.7c-45.3-0.8-90.6-2.6-135.8-5.9
						c-11.3-0.8-22.6-1.8-33.9-2.8c-11.3-1.1-22.6-2.2-33.8-3.4c-22.5-2.6-44.9-6.1-67.2-10.4c-44.5-8.7-88.4-20.4-131.8-33.5
						c-21.7-6.5-43.3-13.4-64.9-20.3c-21.6-6.8-43-14.5-64.1-22.8c-42.1-16.5-84-34.5-128.1-44.4c-22-5-44.6-7.8-67.2-6.8
						c-22.6,0.7-44.8,5.8-65.9,13.8s-41.1,18.7-60.5,30.4s-38.3,24.1-57.7,35.8c-4.8,3-9.8,5.7-14.7,8.6c-4.9,2.9-9.9,5.5-15,8.1
						c-10.1,5.2-20.4,10-30.8,14.5c-20.9,9-42.2,16.7-64,23.1c-43.6,12.9-88.5,20.6-133.9,23c-45.3,2.4-91-0.3-135.6-9
						c-22.3-4.3-44.3-10.1-65.8-17.4c-21.5-7.4-42.4-16.3-62.5-26.9c-20.2-10.5-39.3-22.9-57.3-36.8c-9-6.9-17.6-14.4-26-22.1
						c-8.2-7.9-16.2-16-23.6-24.6c-14.9-17.2-28.2-35.8-39.6-55.5c-11.7-19.5-22.3-39.6-32.2-60c-19.9-40.8-37.3-82.7-55.7-124.1
						c-9.2-20.7-18.7-41.3-28.9-61.5c-10.2-20.2-21.8-39.7-36.1-57c-3.6-4.3-7.3-8.5-11.3-12.5c-1.9-2.1-4.1-3.9-6.1-5.8
						s-4-3.9-6.3-5.5c-8.8-7-18.3-12.9-28.5-17.6c-10.3-4.4-21.1-7.5-32.2-9.4c-11.1-1.6-22.4-2-33.6-1.3
						c-22.5,1.9-44.5,7.3-65.3,16c-5.3,2-10.3,4.6-15.4,6.9l-7.7,3.6l-3.8,1.8c-1.3,0.6-2.5,1.4-3.7,2l-14.8,8.2
						c-2.5,1.3-4.9,2.8-7.2,4.4l-7.1,4.6c-9.6,5.9-18.5,12.9-27.6,19.6c-4.5,3.5-8.7,7.2-13.1,10.7l-6.5,5.4l-6.3,5.7l-12.5,11.4
						l-12.1,11.9c-4.1,3.9-7.9,8-11.8,12.2c-3.9,4.2-7.8,8.2-11.6,12.4c-30.4,33.6-58.2,69.3-86.3,104.9
						c-14.1,17.8-28.2,35.5-42.9,52.8s-29.7,34.2-45.2,50.9c-30.8,33.3-63,65.2-96.6,95.7c-33.5,30.6-68.2,59.8-104.1,87.5
						c-71.8,55.5-147.8,105.3-227.3,149c-39.7,21.8-80.3,42-121.5,61.1c-20.8,9.1-41.3,18.6-62.4,26.9l-15.8,6.4
						c-5.3,2.1-10.5,4.3-15.8,6.2l-31.9,11.8c-10.6,4.1-21.4,7.3-32.2,11l-16.1,5.3l-8.1,2.7l-8.2,2.4l-32.6,9.5
						c-2.7,0.8-5.4,1.6-8.2,2.3l-8.3,2.1l-16.5,4.1c-21.9,5.9-44.2,10-66.4,14.7c-11.1,2.2-22.3,3.8-33.5,5.7l-16.8,2.8
						c-5.6,0.8-11.3,1.4-16.9,2.1l-33.8,3.9l-33.9,2.4c-5.6,0.3-11.3,1-17,1l-17,0.3l-17,0.3c-5.7,0.1-11.3,0.3-17,0l-34-1.2
						c-2.8-0.1-5.7-0.1-8.5-0.4l-8.5-0.8l-16.9-1.5l-16.9-1.5c-2.8-0.2-5.6-0.6-8.4-1l-8.4-1.3L0.1,1092.9z"/>
					<path class="st5" d="M0.2,1082.7l33,4.1c5.5,0.6,11,1.5,16.5,1.9l16.6,1.1l16.6,1.1c5.5,0.3,11.1,0.9,16.6,0.8l33.3,0.5
						c44.3-0.5,88.7-2.9,132.6-9.3l16.5-2.1c5.5-0.7,10.9-1.8,16.4-2.7l32.8-5.6l32.5-6.8l16.3-3.4l16.1-4l32.3-8.1l32-9.2l16-4.6
						l15.8-5.1l31.7-10.2c83.9-28.7,165.8-63.2,245.5-102.2c79.8-38.8,156.6-83.5,229.8-133.6c36.6-25,72-51.8,106.4-79.8
						s67.5-57.6,99.4-88.4c15.9-15.4,31.5-31.2,46.8-47.3c15.3-16.1,30-32.7,44.6-49.3c29.2-33.4,57.9-67.3,89-99.1
						c3.8-4,7.8-7.9,11.8-11.8c4-3.9,7.9-7.8,12-11.6c8.2-7.5,16.3-15.2,24.9-22.2c8.3-7.4,17.2-14,26-20.9
						c4.4-3.4,9.1-6.4,13.6-9.7s9.1-6.5,13.9-9.3l14.2-8.8c4.8-2.8,9.8-5.3,14.6-8l7.4-4c2.5-1.3,5-2.4,7.6-3.5l15.2-7
						c10.3-4.3,20.8-8,31.6-11l4-1.2l4.1-1c2.7-0.6,5.4-1.3,8.2-1.9c5.5-0.9,11-2.1,16.5-2.6c5.5-0.8,11.1-1,16.7-1.3
						c2.8-0.1,5.6,0,8.4,0.1l4.2,0.1l4.2,0.4c11.2,0.8,22.2,3,32.9,6.4c10.7,3.4,20.9,8.2,30.3,14.3l7,4.7c2.2,1.7,4.4,3.5,6.6,5.2
						c4.4,3.5,8.5,7.2,12.5,11.2c16,15.7,29.3,33.8,41.1,52.6s22.4,38.4,32.9,58c20.9,39.2,40.5,79,62.8,117.3
						c11.1,19.2,23,37.9,35.8,55.9c6.3,9.1,13.3,17.7,20.4,26.1c7.4,8.2,14.9,16.3,23.1,23.8c8,7.6,16.6,14.6,25.3,21.4
						c8.9,6.6,17.8,13,27.3,18.8c18.7,11.8,38.4,21.9,58.9,30.4c40.8,17.1,84.1,28,128,33.7c43.9,5.7,88.4,6.3,132.5,2.5
						c44.2-3.9,87.8-12.3,130.2-25.2c21.2-6.4,42-14,62.5-22.5c20.4-8.7,40.2-18.6,59.4-29.7c19.3-10.9,38.4-22.2,58.1-32.5
						c9.8-5.2,19.9-9.8,30.1-14.3c5.2-2,10.3-4.2,15.6-6s10.5-3.7,15.9-5c21.5-6,43.8-8.5,66.1-7.4c11.1,0.6,22.2,1.9,33.1,4
						c5.5,0.8,10.9,2.3,16.3,3.4c5.4,1.4,10.8,2.7,16.1,4.2c42.8,12.3,83.2,31,124.2,48c10.3,4.2,20.5,8.4,30.9,12.2
						s20.9,7.5,31.3,11.2c20.9,7.3,41.9,14.5,63,21.4c42.2,13.7,84.8,26,128.2,35.3c21.7,4.7,43.5,8.5,65.5,11.4s44,5.4,66.1,7.4
						c44.1,4.2,88.4,6.9,132.8,8.3c88.7,2.8,177.5,0.5,266-5.2c-88.5,6-177.3,8.5-266,6c-44.4-1.3-88.7-3.9-132.9-7.9
						c-22.1-2-44.1-4.5-66.2-7.2s-43.9-6.7-65.6-11.3c-43.4-9.2-86.2-21.6-128.4-35.2c-21.1-6.8-42.1-14-63.1-21.3
						c-10.5-3.7-20.9-7.3-31.4-11.2s-20.7-8-31-12.2c-41-16.9-81.4-35.6-124-47.8c-5.3-1.5-10.7-2.9-16.1-4.2
						c-5.4-1.1-10.8-2.5-16.2-3.4c-10.9-2.1-21.8-3.4-32.9-3.9c-22.1-1.1-44.2,1.5-65.5,7.4c-5.4,1.3-10.6,3.3-15.8,5
						s-10.3,4-15.5,5.9c-10.1,4.4-20.2,9.1-30,14.2c-19.7,10.2-38.7,21.5-58.1,32.5s-39.1,21.2-59.6,29.8
						c-61.6,25.9-126.8,42.2-193.3,48.1c-44.3,3.8-89,3.5-133.1-2.3c-44.1-5.8-87.6-16.6-128.7-33.8c-20.6-8.5-40.4-18.7-59.3-30.5
						c-9.5-5.8-18.6-12.3-27.5-19c-8.8-6.9-17.4-13.9-25.5-21.6c-8.2-7.6-15.9-15.6-23.3-23.9c-7.2-8.5-14.3-17.2-20.6-26.3
						c-13-18.1-24.9-36.9-36-56.1c-22.4-38.4-42.1-78.3-63-117.4c-10.5-19.5-21.2-39-32.8-57.8c-11.6-18.8-24.9-36.6-40.6-52.1
						c-3.9-3.9-8-7.6-12.3-11c-2.1-1.7-4.2-3.5-6.4-5.1l-6.8-4.6c-9.2-5.9-19.2-10.6-29.7-14c-10.4-3.4-21.3-5.6-32.2-6.3l-4.1-0.4
						l-4.1-0.1c-2.8,0-5.5-0.2-8.2-0.1c-5.5,0.3-11,0.5-16.4,1.2c-5.5,0.5-10.9,1.6-16.3,2.5l-8.1,1.9l-4,0.9l-4,1.1
						c-10.6,3-21.1,6.6-31.2,10.9l-15.1,6.9c-2.5,1.2-5.1,2.3-7.5,3.5l-7.3,3.9c-4.8,2.6-9.8,5.2-14.6,7.9l-14.1,8.7
						c-4.8,2.8-9.3,6-13.8,9.2s-9.2,6.2-13.5,9.6c-8.8,6.8-17.6,13.4-25.9,20.8c-8.6,7-16.6,14.6-24.8,22.1
						c-4.1,3.8-8,7.7-11.9,11.6s-7.9,7.7-11.7,11.8c-31,31.7-59.8,65.5-89,98.9c-14.7,16.7-29.4,33.3-44.7,49.4
						s-30.9,31.9-46.9,47.3c-32,30.8-65.2,60.3-99.6,88.4c-34.4,28-69.9,54.8-106.6,79.8C927,837.3,850,881.9,770.1,920.7
						c-79.8,38.9-161.8,73.4-245.8,101.9l-31.7,10.1l-15.9,5l-16,4.6l-32,9.1l-32.3,8l-16.2,4l-16.3,3.4l-32.6,6.8l-32.8,5.5
						c-5.5,0.9-10.9,2-16.4,2.7l-16.5,2.1c-44,6.2-88.4,8.6-132.7,8.9l-33.3-0.6c-5.5,0-11.1-0.5-16.6-0.9l-16.6-1.2l-16.6-1.2
						c-5.5-0.4-11-1.3-16.5-2L0.2,1082.7z"/>
					<path class="st5" d="M0.3,1072.5l32.4,3.4c5.4,0.5,10.8,1.3,16.2,1.6l16.3,0.8l16.3,0.8l8.1,0.4l4.1,0.2h4.1l32.6-0.1
						c10.9,0.2,21.7-0.7,32.6-1.2l16.3-0.8l8.1-0.4c2.7-0.2,5.4-0.5,8.1-0.8l32.5-3.1l8.1-0.8l8.1-1.1l16.1-2.2
						c86.2-11.6,170.8-33.3,253.7-59.3c41.4-13.5,82.5-27.5,123.1-43.2c20.4-7.6,40.5-15.8,60.7-23.8c10.1-4,20.1-8.3,30.1-12.5
						s20.1-8.3,30.1-12.7c79.9-34.4,158-73.1,232.5-117.9c74.6-44.9,145.1-96,211-152.9c32.9-28.4,64.5-58.2,94.8-89.5
						c30.4-31.1,60.1-63,91.8-92.9c31.5-30,65.4-57.9,102.3-81.1c9.5-5.4,18.6-11.4,28.5-16.1c4.9-2.5,9.6-5.1,14.6-7.4l15-6.6
						c20-8.9,41-15.3,62.6-18.9c21.6-3.4,43.9-3.6,65.4,1.3c21.5,4.8,41.6,14.7,58.7,28.7c17,13.8,32.3,29.6,45.6,47
						c13.3,17.3,25.3,35.5,37.2,53.8c23.6,36.6,45.8,74.1,70.7,109.7c12.3,17.9,25.7,35,39.9,51.4c7.4,7.9,14.5,16.1,22.8,23.1
						c4,3.6,7.9,7.4,12.1,10.8l12.8,9.9c2.2,1.6,4.2,3.4,6.5,4.9l6.8,4.5l13.6,9l14.2,8c4.7,2.7,9.4,5.4,14.4,7.6l14.7,7l3.7,1.7
						l3.8,1.5l7.6,3c5,2,10,4.2,15.1,5.9l15.4,5.2l7.7,2.6l7.8,2.2l15.7,4.3c5.2,1.5,10.6,2.4,15.9,3.6s10.6,2.4,15.9,3.4l16.1,2.6
						c5.3,0.9,10.7,1.8,16.1,2.3c10.8,1.2,21.5,2.7,32.4,3.2c86.6,6.3,174.3-4.3,257.4-29.5c20.8-6.3,41.3-13.5,61.4-21.7
						c20.1-8.2,39.5-18,58.8-27.9c19.3-9.9,38.6-20.1,58.7-28.7s40.7-16,62.3-19.8c10.8-1.9,21.7-3,32.6-3.3
						c10.9-0.2,21.9,0.4,32.7,1.9c21.6,3,42.8,8.6,63.4,15.6c41.3,14.1,80.4,33.5,120.3,50.8c19.9,8.8,40.3,16.4,60.6,24.1
						s40.8,15.2,61.3,22.3c41.1,14.3,82.6,27.1,125,37c42.3,10.2,85.5,15.8,128.6,20.9c43.2,4.9,86.5,8.3,130,10.2
						c86.9,3.7,174,2.2,260.8-4.6c-86.7,7-173.8,8.8-260.8,5.3c-43.5-1.8-86.8-5.1-130.1-9.8c-43.2-5-86.5-10.5-128.9-20.5
						c-42.4-9.8-84.1-22.7-125.2-36.9c-20.6-7.1-41-14.6-61.4-22.3s-40.8-15.3-60.7-24c-39.9-17.3-79-36.6-120.2-50.6
						c-20.6-6.9-41.6-12.5-63.1-15.4c-10.7-1.4-21.6-2-32.4-1.8c-10.8,0.4-21.6,1.5-32.3,3.3c-21.3,3.9-41.9,11.1-61.8,19.8
						s-39.2,18.8-58.5,28.7s-38.8,19.8-59,28.1s-40.7,15.5-61.6,21.9c-83.3,25.4-171.3,36.1-258.2,29.9c-10.9-0.5-21.7-2.1-32.5-3.2
						c-5.4-0.5-10.8-1.5-16.2-2.3l-16.1-2.6c-5.3-1-10.7-2.3-16-3.4c-5.3-1.1-10.7-2.1-15.9-3.6l-15.8-4.3l-7.9-2.2l-7.8-2.6
						l-15.5-5.2c-5.2-1.8-10.2-4-15.2-6l-7.6-3l-3.8-1.5l-3.7-1.7l-14.8-7c-5-2.2-9.7-5-14.5-7.6l-14.3-8l-13.7-9l-6.8-4.5
						c-2.2-1.5-4.3-3.3-6.5-5l-13-10c-4.3-3.4-8.1-7.3-12.2-10.9c-8.4-7.1-15.5-15.4-23-23.3c-14.3-16.4-27.8-33.7-40.2-51.6
						c-25-35.7-47.3-73.2-70.8-109.7c-11.8-18.2-23.8-36.4-37-53.6c-13.1-17.3-28.2-33-45-46.7c-16.7-13.7-36.4-23.4-57.5-28.1
						c-21-4.8-43-4.6-64.3-1.3c-21.4,3.6-42.2,9.8-62,18.6l-14.9,6.6c-4.9,2.3-9.7,4.9-14.5,7.4c-9.8,4.7-18.9,10.6-28.3,16
						c-36.8,23-70.5,50.7-102,80.6c-31.6,29.8-61.3,61.6-91.8,92.7s-62.1,61.1-95.1,89.5c-66,56.9-136.7,108-211.4,152.9
						c-74.7,44.8-152.9,83.5-232.8,117.8c-10,4.3-20,8.4-30.1,12.6c-10,4.2-20,8.4-30.2,12.4c-20.2,8-40.4,16.2-60.8,23.8
						c-40.6,15.6-81.8,29.7-123.2,43c-83.1,25.8-167.8,47.2-254.1,58.6l-16.2,2.2l-8.1,1.1l-8.1,0.8l-32.5,3
						c-2.7,0.2-5.4,0.5-8.1,0.7l-8.1,0.4l-16.3,0.8c-10.9,0.4-21.7,1.3-32.6,1.1H93.7l-4.1-0.2l-8.1-0.4l-16.3-0.8l-16.3-0.8
						c-5.4-0.3-10.8-1.1-16.2-1.6L0.3,1072.5z"/>
					<path class="st5" d="M0.3,1062.2c85,8.8,171,5.8,255.4-6.9c42.3-5.8,84.2-14.5,125.8-23.8c20.7-5.1,41.6-9.9,62.1-15.7
						c10.3-2.8,20.6-5.5,30.9-8.5l30.7-9c10.3-2.9,20.4-6.2,30.6-9.4l30.5-9.6c20.2-6.8,40.6-13.3,60.7-20.4
						c40.4-13.8,80.5-28.6,120.5-43.4c80-29.8,158.9-63,234.6-102.4c75.8-39.3,148.1-85.2,215.9-137.2c33.9-26,66.8-53.3,98.2-82.2
						c31.4-28.9,62.2-58.6,94.6-86.6c16.1-14.1,32.7-27.6,49.7-40.5c8.6-6.3,17.2-12.8,26.1-18.6c8.8-6.2,18-11.7,27-17.3
						c18.5-10.8,37.4-21,57.2-29.2c9.8-4.4,19.8-8.2,30-11.5c5.1-1.7,10.3-3.1,15.4-4.5c5.2-1.2,10.4-2.6,15.7-3.5
						c21.1-4.3,42.8-5.1,64.2-2.4c10.7,1.5,21.2,4.1,31.3,7.7c10.1,3.8,19.8,8.6,28.9,14.5c18,11.7,34.7,25.4,49.7,40.8
						c7.6,7.6,14.6,15.8,21.5,23.9s13.6,16.5,20.3,24.9c26.5,33.5,51.4,68.3,79.2,100.7c3.5,4,6.9,8.1,10.5,12s7.2,7.9,10.8,11.8
						c7.3,7.8,14.8,15.3,22.8,22.3l5.9,5.3c1,0.9,2,1.8,3,2.7l3.2,2.4l12.6,9.7l3.2,2.4l3.3,2.2l6.7,4.4l6.7,4.4l3.3,2.2l3.5,2
						c9.3,5.1,18.5,10.6,28.2,14.9c4.8,2.2,9.6,4.7,14.5,6.7l14.8,5.9c2.5,1,4.9,2,7.4,2.9l7.6,2.5l15.1,5
						c5.1,1.5,10.3,2.8,15.4,4.3c5.1,1.4,10.2,3,15.5,4c41.5,9.7,84,14.6,126.6,15.8c5.3,0.3,10.7,0.2,16,0.2h16
						c10.7-0.3,21.3-0.8,32-1.2c10.6-0.9,21.3-1.5,31.9-2.7l31.7-3.9c21.2-2.5,42.1-6.6,63-11c20.9-4.4,41.5-9.9,62-16
						s40.7-12.9,60.5-20.7c19.8-7.8,39.2-16.8,58.6-25.7s38.9-17.7,59.1-24.8s41.1-12.4,62.5-14.4c21.4-2,43-0.7,64,3.8
						c21,4.4,41.4,11.1,61.3,18.9c39.9,15.6,77.8,35.5,116.6,53.2c19.4,8.8,39.3,16.8,59,24.8s39.7,15.8,59.7,23.3
						c40,14.9,80.6,28.3,122,38.8c20.7,5.2,41.5,9.9,62.6,13.3l15.6,2.7l15.8,2.4c10.5,1.7,21.1,3.1,31.7,4.5
						c42.3,5.6,84.8,9.6,127.5,12c85.3,4.8,170.9,3.5,256-4c-85.1,7.7-170.7,9.3-256,4.8c-42.7-2.2-85.2-6.1-127.6-11.7
						c-10.6-1.4-21.2-2.8-31.7-4.4l-15.9-2.4l-15.8-2.7c-21.1-3.4-42-8-62.7-13.1c-41.5-10.4-82.1-23.9-122.1-38.8
						c-20-7.4-39.9-15.3-59.7-23.3s-39.6-16-59.1-24.8c-38.9-17.6-76.8-37.5-116.6-53c-19.9-7.7-40.2-14.4-61-18.7
						c-20.8-4.4-42.2-5.7-63.4-3.7c-21.2,2-41.9,7.3-62,14.3s-39.5,15.9-58.9,24.8s-38.8,18-58.7,25.8s-40.2,14.6-60.7,20.8
						s-41.2,11.5-62.1,16.1c-20.9,4.6-41.9,8.6-63.2,11.1l-31.8,4c-10.6,1.2-21.3,1.8-32,2.7c-10.7,0.5-21.4,1-32.1,1.3l-16,0
						c-5.3,0-10.7,0.1-16-0.2c-42.8-1.1-85.5-6-127.2-15.7c-5.3-1-10.4-2.7-15.6-4c-5.2-1.3-10.3-2.7-15.5-4.3l-15.3-5l-7.6-2.5
						c-2.5-0.9-5-2-7.5-2.9l-14.9-5.9c-5-2-9.7-4.5-14.6-6.7c-9.8-4.3-19.1-9.8-28.5-15l-3.5-2l-3.4-2.2l-6.7-4.4l-6.7-4.4l-3.4-2.2
						l-3.2-2.4l-12.8-9.8l-3.2-2.4c-1-0.9-2-1.8-3-2.7l-6-5.4c-8.1-7.1-15.7-14.6-23-22.4c-3.7-3.9-7.3-7.8-10.9-11.8
						s-7.1-8-10.6-12.1c-27.9-32.5-52.9-67.3-79.4-100.7c-6.6-8.4-13.3-16.6-20.2-24.8c-6.9-8.1-13.8-16.2-21.3-23.8
						c-14.9-15.2-31.3-28.8-49.1-40.4c-8.9-5.7-18.4-10.4-28.3-14.2c-10-3.6-20.3-6.1-30.7-7.6c-21.1-2.7-42.4-1.9-63.3,2.3
						c-5.2,0.9-10.4,2.3-15.5,3.5c-5.1,1.5-10.3,2.8-15.3,4.5c-10.1,3.2-20.1,7-29.8,11.4c-19.7,8.1-38.5,18.3-56.9,29
						c-9,5.6-18.2,11.1-26.9,17.2c-8.9,5.8-17.4,12.2-26,18.5c-17,12.9-33.6,26.3-49.6,40.3c-32.3,27.9-63,57.6-94.6,86.4
						s-64.5,56.2-98.4,82.2c-68,52-140.5,97.9-216.5,137.2c-76,39.3-154.9,72.5-235,102.2c-40.1,14.8-80.2,29.5-120.6,43.2
						c-20.1,7.1-40.5,13.6-60.8,20.3l-30.6,9.7c-10.2,3.2-20.4,6.4-30.6,9.3l-30.8,9c-10.3,2.9-20.6,5.6-30.9,8.4
						c-20.6,5.8-41.4,10.4-62.2,15.5c-41.7,9.2-83.6,17.8-125.9,23.5C171.3,1068.6,85.3,1071.3,0.3,1062.2z"/>
					<path class="st5" d="M0.4,1052l31.4,2c5.2,0.3,10.5,0.7,15.7,1l15.8,0.2c10.5,0.1,21,0.3,31.5,0.3l31.5-1.2
						c5.2-0.2,10.5-0.3,15.7-0.7l15.7-1.3c10.5-0.9,20.9-1.6,31.4-2.6l31.3-3.7c5.2-0.7,10.4-1.2,15.6-2l15.6-2.4
						c10.4-1.6,20.8-3.2,31.1-4.9l31-5.8c5.2-1,10.3-1.9,15.5-2.9l15.4-3.3l30.8-6.7c40.9-9.7,81.6-19.9,122-31.5
						c80.9-22.7,160.8-48.7,240.8-74.2s159.5-53.1,236.4-86.9c77-33.7,150.8-74.2,220.5-121.1c34.8-23.4,68.9-48.1,101.4-74.7
						c32.7-26.4,64.4-54,97.4-80.1c16.4-13.1,33.4-25.7,50.5-37.9l13.1-8.9l6.5-4.4l6.7-4.2l13.4-8.4l13.7-8
						c2.3-1.3,4.5-2.7,6.8-3.9l7-3.7l14-7.3l14.3-6.8c2.4-1.1,4.8-2.3,7.2-3.3l7.3-3c19.3-8.5,39.4-15.2,60-19.9
						c20.6-4.4,41.9-6.7,63-5.1l4,0.3l3.9,0.5c2.6,0.4,5.3,0.6,7.9,1c5.2,1,10.4,1.9,15.5,3.3c5.2,1.2,10.2,3.1,15.2,4.7
						c4.9,2.1,9.9,3.9,14.5,6.4c18.8,9.7,36.6,21.1,53.2,34.2c8.3,6.5,16.2,13.6,23.8,20.8s15.1,14.6,22.6,22.1
						c29.6,30,57.5,61.4,88.1,90.1c15.3,14.3,31.2,28.1,48.2,40.2c17.3,11.8,35.4,22.4,54.6,30.7c38.1,17.4,79,28.1,120.3,34.9
						c41.4,6.6,83.4,9.4,125.3,8.5c83.9-1.7,167.5-15,248.2-38.1c20.1-5.8,40.2-12.1,59.9-19.3c19.7-7.2,39-15.4,58.6-23.2
						s39.2-15.2,59.5-20.7c10.2-2.8,20.5-5,30.9-6.7c5.2-0.7,10.5-1.4,15.7-1.8l7.9-0.5l3.9-0.2h4c21.1-0.5,42.2,2.8,62.5,8.5
						c20.3,5.8,40.1,12.9,59.3,21.5c38.6,16.9,75.4,37.3,113.3,55.3c18.9,9,38.3,17.3,57.5,25.8s38.6,16.5,58.1,24.3
						c39,15.5,78.6,29.7,119.1,40.8c20.2,5.6,40.6,10.5,61.3,14.3c20.6,4.1,41.3,7.7,62,10.9c41.5,6.4,83.2,11,125.2,13.8
						c83.9,5.9,168.1,4.7,251.7-3.6c-83.7,8.5-167.9,10-251.8,4.3c-41.9-2.7-83.7-7.2-125.3-13.5c-20.8-3.2-41.5-6.6-62.1-10.7
						c-20.7-3.8-41.2-8.7-61.4-14.2c-40.6-11.1-80.3-25.2-119.3-40.7c-19.5-7.8-38.9-15.9-58.2-24.3s-38.6-16.7-57.6-25.7
						c-38-18.1-74.8-38.4-113.3-55.2c-19.2-8.5-38.9-15.6-59.1-21.3c-20.1-5.6-41-8.8-62-8.3h-3.9l-3.9,0.3l-7.8,0.5
						c-5.2,0.4-10.4,1.2-15.6,1.8c-10.3,1.7-20.6,3.9-30.6,6.7c-20.2,5.5-39.9,12.9-59.4,20.7s-38.9,16-58.6,23.3
						c-19.7,7.3-39.8,13.6-60,19.4c-80.8,23.2-164.6,36.6-248.8,38.4c-42.1,1-84.2-1.8-125.8-8.4c-41.5-6.7-82.7-17.4-121.1-35
						c-19.4-8.3-37.7-19.1-55.1-31c-17.3-12.2-33.2-26-48.6-40.4c-30.8-28.8-58.8-60.2-88.3-90.1c-7.4-7.4-14.8-14.8-22.5-22
						c-7.6-7.2-15.4-14.2-23.6-20.7c-16.4-13-34-24.3-52.6-33.9c-4.6-2.5-9.5-4.3-14.3-6.3c-4.9-1.6-9.8-3.5-14.9-4.6
						c-5-1.5-10.1-2.3-15.3-3.3c-2.6-0.4-5.2-0.7-7.7-1l-3.9-0.5l-3.9-0.3c-20.8-1.6-41.8,0.7-62.2,5c-20.4,4.6-40.4,11.2-59.5,19.7
						l-7.3,3c-2.4,1.1-4.8,2.2-7.1,3.3l-14.2,6.7l-13.9,7.3l-7,3.7c-2.3,1.3-4.5,2.6-6.8,3.9l-13.6,7.9l-13.3,8.4l-6.7,4.2l-6.5,4.4
						l-13,8.8c-17.1,12.2-34,24.7-50.4,37.8c-33,26-64.7,53.6-97.5,80c-32.6,26.6-66.7,51.3-101.6,74.7
						c-69.9,46.9-143.9,87.4-221,121.1c-77,33.8-156.6,61.3-236.7,86.7s-160,51.4-241,73.9c-40.4,11.5-81.2,21.6-122.1,31.2
						l-30.8,6.6l-15.4,3.3c-5.1,1-10.3,1.9-15.5,2.9l-31,5.7c-10.4,1.7-20.8,3.2-31.1,4.8l-15.6,2.4c-5.2,0.8-10.4,1.3-15.6,1.9
						l-31.3,3.7c-10.5,1-21,1.7-31.4,2.5l-15.7,1.2c-5.2,0.4-10.5,0.4-15.8,0.6l-31.5,1.1c-10.5,0-21-0.3-31.5-0.4l-15.8-0.2
						c-5.2-0.2-10.5-0.7-15.7-1L0.4,1052z"/>
					<path class="st5" d="M0.5,1041.8l31,1.3l15.5,0.6l15.5-0.1l31.1-0.3l31-1.7l15.5-0.9l15.5-1.5l30.9-3l30.8-4.1l15.4-2l15.3-2.5
						l30.6-5l30.5-5.8l15.3-2.9c5.1-1,10.1-2.2,15.2-3.3l30.4-6.6c40.4-9.3,80.6-19.3,120.5-30.1c80-21.3,159.5-44.7,239.6-66.2
						s160-43.3,237.8-71.5c38.9-14,77.2-29.8,114.8-47.3s74.2-36.7,110-57.6c17.9-10.4,35.6-21.2,53-32.3c8.7-5.6,17.4-11.2,26-17
						c8.5-5.9,17.1-11.7,25.5-17.7c33.7-24,66.5-49.3,100.2-73.5c33.7-24.2,68.2-47.3,104.8-67c9-5.1,18.4-9.5,27.7-14.2
						c4.6-2.3,9.4-4.3,14.1-6.5c4.7-2.2,9.4-4.4,14.3-6.2c9.6-3.9,19.2-7.8,29.1-11.2c9.9-3.2,19.8-6.3,30-8.6
						c5-1.3,10.2-2.2,15.3-3.3c5.1-0.8,10.3-1.8,15.4-2.3c10.3-1.3,20.8-1.9,31.2-1.8c10.4,0.1,20.8,1.1,31.1,2.8
						c10.3,1.8,20.4,4.6,30.2,8.1c9.8,3.8,19.1,8.2,28.5,12.8c9.3,4.6,18.5,9.5,27.4,14.8c9,5.3,17.6,11.1,26,17.3
						c8.4,6.1,16.6,12.5,24.8,18.8c32.6,25.7,63.7,53.1,97,77.6c8.4,6,16.8,12,25.5,17.7c2.2,1.4,4.3,2.9,6.5,4.2l6.7,3.9
						c4.5,2.5,8.8,5.4,13.4,7.7l13.8,6.9l3.5,1.7l3.6,1.5l7.1,3c9.4,4.3,19.2,7.5,28.9,10.9c39.2,12.9,80.2,20.2,121.3,24.3
						c41.1,4.1,82.6,4.2,123.9,2c82.6-4.5,164.6-18.7,244.6-40.1c20-5.4,39.9-11.1,59.5-17.7c19.6-6.6,39-13.8,58.7-20.4
						s39.5-12.7,59.9-16.7c20.4-4.1,41.2-5.7,62-4.6c20.8,1.1,41.3,5.7,61,12.4c19.7,6.5,38.8,14.8,57.5,23.7
						c37.4,17.9,73.3,38.8,110.2,57.4c74.4,36.2,149.9,71.1,229.2,95l14.9,4.3l15,4.1c10,2.6,20.1,4.8,30.2,7.1
						c20.2,4.5,40.5,8.4,60.9,12c40.8,7.1,81.8,12.3,123.2,15.6c82.5,6.7,165.7,6.3,248.1-3c-82.3,9.6-165.5,10.2-248.1,3.8
						c-41.3-3.3-82.5-8.3-123.3-15.3c-20.4-3.6-40.8-7.4-61-11.9c-10.1-2.3-20.2-4.4-30.3-7l-15-4l-14.9-4.3
						c-39.7-11.9-78.5-26.6-116.7-42.8s-75.7-33.8-112.9-52c-37-18.6-72.9-39.5-110.3-57.3c-18.7-8.9-37.7-17.1-57.3-23.6
						c-19.5-6.7-39.8-11.2-60.4-12.2c-20.6-1-41.3,0.5-61.5,4.7c-20.2,4.1-40,10.1-59.6,16.7s-39,13.8-58.7,20.4
						s-39.6,12.4-59.6,17.8c-80,21.5-162.2,35.8-245,40.4c-41.4,2.2-83,2.1-124.3-1.9c-41.3-4-82.4-11.3-121.9-24.3
						c-9.8-3.5-19.7-6.7-29.2-11l-7.2-3l-3.6-1.5l-3.5-1.7l-14-7c-4.6-2.3-9-5.2-13.6-7.8l-6.7-4c-2.2-1.4-4.3-2.8-6.5-4.2
						c-8.7-5.7-17.2-11.7-25.6-17.7c-33.5-24.5-64.7-52-97.2-77.6c-8.1-6.4-16.3-12.7-24.7-18.8c-8.3-6.2-16.8-11.9-25.7-17.2
						c-8.9-5.3-18-10.1-27.2-14.7s-18.7-9-28.2-12.7c-9.6-3.5-19.6-6.2-29.7-8c-10.1-1.7-20.4-2.6-30.7-2.8
						c-10.3-0.1-20.7,0.5-30.9,1.8c-5.1,0.5-10.2,1.5-15.3,2.3c-5,1.1-10.1,1.9-15.1,3.2c-10.1,2.3-19.9,5.4-29.7,8.5
						c-9.8,3.2-19.3,7.2-28.9,11.1c-4.8,1.8-9.5,4.1-14.2,6.2s-9.5,4.2-14.1,6.4c-9.2,4.6-18.6,9-27.6,14.1
						c-36.5,19.6-70.9,42.6-104.6,66.7c-33.7,24.1-66.5,49.4-100.3,73.4c-8.4,6.1-17,11.9-25.5,17.8c-8.5,5.9-17.3,11.4-26,17
						c-17.5,11.2-35.2,22-53.1,32.4c-35.9,20.8-72.6,40-110.2,57.6c-37.6,17.5-75.9,33.2-115,47.2c-78,28.2-158,50.1-238.1,71.3
						S571,954.3,490.9,975.5c-40,10.7-80.3,20.5-120.7,29.7l-30.4,6.5c-5.1,1.1-10.1,2.2-15.2,3.2l-15.3,2.9l-30.5,5.8l-30.7,4.9
						l-15.3,2.5l-15.4,2l-30.8,4l-30.9,2.9l-15.5,1.4l-15.5,0.8l-31,1.6l-31.1,0.2l-15.5,0.1l-15.5-0.7L0.5,1041.8z"/>
					<path class="st5" d="M0.6,1031.5l30.7,0.7l15.3,0.3l15.3-0.4l30.7-0.8l30.6-2.2l15.3-1.1l15.3-1.7l30.5-3.3l30.4-4.3l15.2-2.2
						c5.1-0.8,10.1-1.7,15.1-2.6c80.7-13.5,160.5-32.5,239.8-52.6s158.5-41.1,238.5-58.5c80-17.3,160.3-33.7,239-56.3
						c39.3-11.3,78.2-24.1,116.3-38.9c38.1-14.8,75.6-31.4,112.2-49.7s72.6-37.9,107.3-59.5s68.6-44.6,103.1-66.8
						s69.4-43.6,106.1-62.1c18.2-9.4,37-17.8,55.9-25.6c9.6-3.6,19.1-7.6,28.8-10.8s19.6-6.3,29.6-8.7c19.9-5.1,40.4-8.1,60.9-9
						c20.6-0.7,41.3,1.1,61.3,6.5c10,2.7,19.6,6.3,29.2,9.8c9.6,3.5,19.2,7.2,28.7,11.3c19,7.9,36.8,18.3,54.6,28.5
						c35.3,20.8,69.5,43.5,105.3,63.1c9,4.9,18,9.6,27.2,14.1c4.6,2.3,9.3,4.2,13.9,6.3l7,3.1c2.3,1,4.8,1.8,7.1,2.7l14.4,5.3
						l14.6,4.5c4.9,1.6,9.8,2.8,14.8,4.1s9.9,2.6,14.9,3.7c39.9,8.7,80.7,13.2,121.5,14.6c40.9,1.2,81.7,0,122.4-3.5
						c81.5-7,162.3-21.6,241.7-41.1c19.9-4.9,39.7-10,59.3-15.8s39.1-11.9,58.9-17.4s39.8-10.2,60.1-12.8c20.4-2.8,41.1-3,61.5-0.7
						c20.4,2.5,40.4,8.2,59.5,15.7c19.1,7.5,37.7,16.1,55.9,25.6c36.4,18.8,71.4,40.2,107.4,59.5c72.6,37.7,146.3,74.1,224.1,99.6
						c9.7,3.2,19.5,6.2,29.3,9s19.8,5.2,29.7,7.7s19.9,4.6,29.9,7c10,2.2,20,4.2,30.1,6.3c40.2,7.8,80.7,13.6,121.4,17.5
						c81.4,7.7,163.8,7.7,245.1-2.5c-81.2,10.5-163.6,10.7-245.1,3.3c-40.8-3.7-81.3-9.5-121.6-17.1c-10-2.1-20.1-4-30.1-6.2
						c-10-2.3-20-4.4-29.9-6.9s-19.9-4.8-29.8-7.7s-19.7-5.8-29.4-8.9c-78-25.4-151.8-61.8-224.4-99.4
						c-36.2-19.3-71.1-40.6-107.5-59.4c-18.1-9.5-36.7-18-55.7-25.5c-19-7.4-38.7-13.1-59-15.5c-20.3-2.3-40.8-2-61,0.8
						c-20.3,2.6-40.2,7.3-59.9,12.8s-39.2,11.6-58.9,17.5s-39.5,11-59.4,15.9c-79.5,19.6-160.4,34.3-242,41.4
						c-40.8,3.6-81.9,4.8-122.8,3.7c-41-1.4-81.9-5.8-122-14.6c-5-1.1-10-2.5-14.9-3.7s-10-2.5-14.9-4.1l-14.7-4.5l-14.5-5.3
						c-2.4-0.9-4.8-1.7-7.2-2.7l-7-3.1c-4.7-2.1-9.5-4-14-6.4c-9.2-4.5-18.3-9.2-27.3-14.1c-36-19.6-70.2-42.3-105.5-63
						c-17.7-10.3-35.4-20.6-54.2-28.4c-9.4-4-18.9-7.7-28.5-11.2c-9.6-3.5-19.2-7.1-29-9.7c-19.6-5.3-40.1-7.1-60.4-6.5
						c-20.4,0.8-40.6,3.8-60.4,8.8c-9.9,2.4-19.7,5.4-29.3,8.6s-19.1,7.1-28.7,10.7c-18.9,7.8-37.6,16.1-55.7,25.4
						c-36.5,18.4-71.5,39.8-105.9,61.8s-68.3,45.1-103.2,66.7c-34.9,21.6-70.9,41.2-107.5,59.5s-74.2,34.8-112.4,49.6
						s-77.2,27.6-116.6,38.9c-78.8,22.5-159.1,38.9-239.1,56c-80,17.3-159.1,38.3-238.6,58.2s-159.2,38.6-240,51.9
						c-5,0.8-10.1,1.8-15.1,2.5l-15.2,2.1l-30.4,4.3l-30.5,3.3l-15.3,1.6l-15.3,1l-30.6,2.1l-30.7,0.8l-15.4,0.4l-15.4-0.4
						L0.6,1031.5z"/>
					<path class="st5" d="M0.7,1021.3h45.6l15.2-0.7l30.4-1.4l30.3-2.7l15.1-1.3l15.1-1.9l30.2-3.8l30.1-4.6c10-1.5,20-3.1,30-5
						c79.9-14.1,158.9-32.9,237.8-51.8c39.4-9.5,78.9-18.7,118.5-27.6l29.8-6.4l14.9-3.2l14.9-2.9l29.9-5.8l30-5.2
						c80.1-13.3,160.5-24.3,239.9-41.2c39.6-8.5,79-18.4,117.7-30.5s76.8-26.1,114.2-41.7c37.4-15.6,74.2-32.8,109.9-51.9
						s70.7-39.8,105.9-60s70.8-39.9,107.6-57.1c18.3-8.8,37.1-16.7,55.9-24.2c19-7.2,38.1-14.2,57.9-19.1c9.9-2.6,19.8-4.6,29.9-6.4
						c10.1-1.6,20.2-3,30.3-3.7c10.2-0.8,20.4-0.9,30.6-0.5c10.2,0.4,20.4,1.5,30.4,3.3c10.1,1.8,19.9,4.5,29.7,6.9
						c9.8,2.5,19.7,5,29.4,7.8c9.8,2.8,19.5,5.8,29.1,9.4c9.6,3.6,19,7.3,28.4,11.1c37.6,15.3,74.4,32.5,112.3,46.8
						c9.5,3.6,19,7,28.6,10.2c4.8,1.6,9.7,3,14.5,4.5l7.3,2.2l7.4,1.8c19.6,5.2,39.6,8.4,59.6,11.2c40.2,4.9,80.7,6.8,121.3,5.7
						c40.5-0.9,81-3.9,121.2-8.5c80.6-9.2,160.4-24,239.6-41.4c19.8-4.4,39.6-8.8,59.2-13.8s39.3-10,59.2-14.4s39.9-7.8,60.3-9.2
						s40.8-0.8,60.9,2.8s39.6,10.1,58.1,18.3s36.7,17.4,54.5,27.3c35.5,19.7,69.7,41.7,105,61.7c70.8,39.4,142.9,77.3,219.4,104.5
						c9.5,3.4,19.2,6.6,28.8,9.7s19.5,5.6,29.2,8.4s19.6,5.1,29.4,7.6l29.6,6.8c39.6,8.6,79.7,15,120,19.5
						c80.6,8.7,162.3,9.3,242.7-1.9c-80.4,11.4-162.1,11.1-242.8,2.7c-40.4-4.3-80.5-10.6-120.2-19l-29.7-6.8
						c-9.8-2.5-19.7-4.8-29.5-7.5s-19.6-5.3-29.3-8.3s-19.3-6.2-28.9-9.6c-76.7-27.1-148.8-65.1-219.7-104.4
						c-35.3-20-69.5-41.9-105-61.5c-17.7-9.8-35.8-19-54.4-27.1s-37.8-14.7-57.7-18.1s-40.2-4.1-60.4-2.7s-40.2,4.8-59.9,9.2
						s-39.4,9.5-59.1,14.4s-39.5,9.5-59.3,13.9c-79.2,17.5-159.1,32.5-239.8,41.7c-40.3,4.6-80.9,7.7-121.5,8.6
						c-40.6,1.1-81.3-0.7-121.7-5.6c-20.1-2.8-40.3-6-59.9-11.2l-7.4-1.8l-7.3-2.2c-4.9-1.5-9.8-2.8-14.6-4.5
						c-9.6-3.2-19.2-6.6-28.7-10.2c-38-14.3-74.9-31.4-112.4-46.7c-9.4-3.9-18.8-7.5-28.3-11.1s-19.1-6.6-28.8-9.3
						s-19.6-5.3-29.4-7.8c-9.8-2.5-19.6-5.2-29.5-6.9c-9.9-1.8-19.9-2.9-30-3.3c-10.1-0.4-20.2-0.3-30.2,0.5
						c-10.1,0.7-20.1,2-30.1,3.6c-9.9,1.8-19.9,3.8-29.6,6.3c-19.6,4.8-38.7,11.8-57.6,18.9c-18.8,7.5-37.5,15.3-55.8,24.1
						c-36.7,17.2-72.2,36.8-107.4,56.9s-70.2,40.8-106,59.9s-72.7,36.2-110.2,51.8c-37.5,15.7-75.7,29.5-114.5,41.6
						s-78.2,22-117.9,30.5c-79.5,16.8-159.9,27.8-240,40.9l-30,5.1l-29.8,5.8l-14.9,2.9l-14.9,3.2l-29.7,6.4
						c-39.5,8.8-79,18.1-118.5,27.5c-78.9,18.7-158,37.2-238,51.1c-10,1.9-20,3.4-30,4.9l-30.1,4.5l-30.2,3.7l-15.1,1.8l-15.2,1.3
						l-30.3,2.6l-30.4,1.3l-15.2,0.7H31.1L0.7,1021.3z"/>
					<path class="st5" d="M0.8,1011.1l30.2-0.7l15.1-0.3l15.1-1l30.2-2l30.1-3.2l15-1.6l15-2.1l29.9-4.2c10-1.6,19.9-3.3,29.8-5
						s19.9-3.3,29.8-5.3c79.3-14.8,157.8-33.5,236.4-51.3c39.3-9,78.8-17.3,118.4-25.1l29.8-5.4l14.9-2.7l15-2.3l29.9-4.6l30-3.7
						c80.1-9.2,160.7-14.7,240.5-26.1c39.9-5.7,79.6-12.8,118.8-22.2c39.2-9.4,77.9-20.7,116-33.7c38.1-13,75.7-27.7,112.4-44.3
						s72.6-35,108.6-53.2s72.2-36.1,109.2-52.2c18.5-8.2,37.3-15.6,56.1-22.7c19-6.9,38-13.7,57.7-18.5c9.8-2.6,19.7-4.7,29.6-6.6
						c10-1.8,20-3.3,30-4.3c20.2-2.2,40.5-2.4,60.7-0.4c10.1,1,20,2.8,30,4.3l29.9,4.4c10,1.5,19.9,3.3,29.9,5.4
						c9.9,2.2,19.7,4.5,29.5,6.9c39.2,9.6,78,20.6,117.3,29.4c9.8,2.2,19.7,4.3,29.6,6.2c4.9,1,9.9,1.7,14.9,2.6s9.9,1.7,14.9,2.2
						c19.9,2.8,40,4.1,60.1,5c80.5,2.9,161.1-4.9,240.9-15.9c39.9-5.5,79.7-12.2,119.4-19.4l118.9-22.4l29.7-5.6
						c9.9-1.9,19.8-3.9,29.6-6c19.7-4.1,39.5-8.2,59.4-11.5c39.7-6.7,80.9-9,120.6-0.3c19.8,4.3,38.9,11.6,57,20.4
						s35.9,18.5,53.3,28.7c34.8,20.5,68.3,43.1,102.7,63.9c69.3,41.2,139.8,80.9,215,110c9.4,3.7,18.9,7.1,28.4,10.4
						s19.2,6.1,28.8,9.2s19.4,5.5,29.1,8.3c9.7,2.6,19.5,5,29.3,7.5c39.2,9.4,78.9,16.6,118.9,21.5c80,9.8,161.3,10.9,241.1-1.2
						c-79.8,12.4-161.2,11.5-241.2,2c-40-4.8-79.7-11.9-119-21.1c-9.8-2.5-19.6-4.8-29.3-7.4c-9.7-2.8-19.5-5.3-29.1-8.3
						s-19.3-5.8-28.9-9.1s-19-6.7-28.5-10.3c-75.4-29.1-146.1-68.8-215.4-109.9c-34.6-20.9-68.1-43.4-102.8-63.8
						c-17.4-10.2-35-19.9-53.2-28.6s-37-16-56.6-20.2c-39.4-8.6-80.3-6.3-119.8,0.4c-19.9,3.3-39.6,7.4-59.3,11.5
						c-9.9,2-19.8,4.1-29.6,6l-29.7,5.7L2471.7,640c-39.7,7.2-79.5,13.9-119.4,19.5c-79.9,11.1-160.5,19-241.3,16.2
						c-20.2-1-40.4-2.2-60.4-5c-5-0.6-10-1.4-15-2.2s-10-1.6-14.9-2.6c-9.9-1.9-19.8-4-29.7-6.2c-39.4-8.8-78.3-19.7-117.4-29.3
						c-9.8-2.4-19.6-4.7-29.4-6.9c-9.8-2.2-19.7-3.9-29.6-5.4l-29.9-4.5c-10-1.5-19.9-3.3-29.9-4.3c-20-1.9-40.1-1.8-60.1,0.4
						c-10,1-19.9,2.5-29.8,4.3c-9.9,1.9-19.7,4-29.4,6.5c-19.5,4.8-38.5,11.5-57.4,18.4c-18.8,7.1-37.6,14.5-56,22.6
						c-37,16-73.1,33.9-109.2,52s-72,36.5-108.8,53.1s-74.5,31.2-112.7,44.3c-38.2,13.1-77,24.3-116.3,33.7s-79,16.5-119,22.2
						c-79.9,11.3-160.5,16.7-240.6,25.8l-30,3.7l-29.9,4.6l-14.9,2.3l-14.9,2.7l-29.8,5.3c-39.6,7.8-79,16.1-118.3,24.9
						c-78.7,17.5-157.2,36.1-236.6,50.6c-9.9,1.9-19.9,3.5-29.8,5.2s-19.9,3.3-29.9,4.9l-30,4.1l-15,2l-15,1.5l-30.1,3.1l-30.2,1.9
						l-15.1,1l-15.1,0.3L0.8,1011.1z"/>
					<path class="st5" d="M0.8,1000.9l30.1-1.3l15.1-0.7l15-1.3l30-2.6l29.9-3.7l15-1.9l14.9-2.3l29.8-4.6l29.7-5.3
						c9.9-1.8,19.8-3.5,29.6-5.6c78.9-15.4,157.1-34.3,235.8-50.9c39.3-8.5,78.9-15.9,118.5-22.5l29.8-4.4c5-0.7,9.9-1.5,14.9-2.1
						l15-1.7c10-1.1,20-2.4,30-3.3l30.1-2.2c80.3-5,160.8-5.1,241-11c40.1-2.9,80-7.3,119.7-14s78.9-15.4,117.6-25.9
						s77.2-22.6,114.7-36.9s74.4-30.3,111.3-46.4c36.8-16.1,73.6-32.4,111-47.2c18.7-7.5,37.5-14.5,56.5-21.3
						c9.5-3.2,19-6.6,28.6-9.6c9.6-3,19.3-5.8,29.1-8.3c39-10,79.3-16.2,119.7-15c10.1,0.3,20.1,1.2,30.1,1.6l30.1,1.2
						c10,0.4,20.1,0.9,30.2,1.7l30,2.8c40,3.9,80,8.6,120,11.7c20,1.6,40.1,2.9,60.1,3.4s40.1-0.1,60.2-1
						c80.3-4.1,160-15.7,239.3-28.8c39.6-6.6,79.2-13.8,118.8-20.9l118.9-20.7c19.8-3.5,39.6-6.9,59.5-10.1s39.7-6.4,59.7-8.7
						s40.2-3.6,60.3-3c20.2,0.5,40.2,3.2,59.8,8c19.6,4.8,38.4,12.7,56.2,22c17.9,9.2,35.3,19.5,52.3,30.1
						c34.1,21.3,67,44.5,100.8,66.4c67.8,43.1,137,84.7,211.1,116c9.3,3.9,18.6,7.6,28,11.2s18.9,6.7,28.4,9.9s19.2,6,28.7,9.1
						s19.3,5.5,29,8.2c38.9,10.3,78.3,18.3,118.1,23.8c79.5,11,160.8,12.7,240.3-0.5c-79.4,13.4-160.7,12-240.4,1.2
						c-39.9-5.4-79.4-13.3-118.3-23.5c-9.7-2.7-19.4-5.3-29.1-8.1s-19.3-5.7-28.8-9s-19.1-6.3-28.5-9.9s-18.8-7.3-28-11.2
						c-74.3-31.2-143.6-72.9-211.4-115.9c-33.8-21.8-66.7-45-100.8-66.3c-17.1-10.6-34.3-20.9-52.2-30c-17.8-9.3-36.4-17-55.8-21.8
						c-19.5-4.8-39.4-7.5-59.4-7.9c-20-0.6-40.1,0.8-60,3.1s-39.8,5.4-59.6,8.7s-39.6,6.7-59.4,10.2L2482.5,623
						c-39.6,7.1-79.1,14.4-118.8,21c-79.3,13.2-159.1,24.9-239.5,29.1c-20.1,0.9-40.3,1.4-60.4,1c-20.1-0.4-40.2-1.7-60.3-3.3
						c-40.1-3.2-80.1-7.7-120.1-11.6l-30-2.8c-10-0.8-20-1.3-30-1.7l-30.1-1.2c-10.1-0.4-20.1-1.3-30.1-1.7
						c-40.1-1.2-80.1,4.8-118.9,14.8c-9.7,2.5-19.4,5.3-28.9,8.3s-19,6.3-28.6,9.6c-18.9,6.7-37.8,13.7-56.4,21.2
						c-37.4,14.8-74.2,31-111,47.1s-73.8,32.1-111.5,46.3c-37.7,14.2-76.1,26.3-114.9,36.8s-78.2,19.2-117.9,25.8
						s-79.7,11.1-119.8,13.9c-80.3,5.8-160.8,5.9-241,10.7l-30.1,2.2c-10,0.9-20,2.2-29.9,3.3l-15,1.7c-5,0.6-10,1.4-14.9,2.1
						l-29.8,4.4c-39.7,6.5-79.2,13.9-118.5,22.3c-78.7,16.4-157,35-236,50.2c-9.9,2-19.8,3.7-29.7,5.5l-29.7,5.2l-29.8,4.5
						l-14.9,2.2l-15,1.8L91,995.3L61,997.8l-15,1.3l-15.1,0.6L0.8,1000.9z"/>
					<path class="st5" d="M0.9,990.7l30.1-2l15-1l15-1.6l30-3.2l29.9-4.3l14.9-2.1l14.9-2.5l29.7-5.1l29.6-5.7
						c9.9-1.9,19.7-3.8,29.6-6c78.7-16.4,156.9-35.6,235.8-51.1c39.4-8,79.2-14.4,119-19.7c20-2.1,40-4.7,60.1-5.7l15.1-1l7.5-0.5
						c2.5-0.2,5-0.1,7.5-0.2l30.2-0.5c80.5,0.3,160.8,5.1,241.2,4.4c40.2-0.3,80.4-2.1,120.3-6.1c40-4.1,79.8-10.2,119.1-18.1
						c19.7-4,39.3-8.4,58.8-13.3c9.8-2.5,19.5-5,29.1-7.7c9.6-2.8,19.3-5.5,28.9-8.5c38.4-11.8,76.2-25.6,113.8-39.7
						s75.1-28.7,113-42.4c18.9-6.9,37.9-13.5,57-19.9c9.6-3.2,19.1-6.3,28.8-9.2c9.7-2.8,19.4-5.4,29.2-7.7
						c39.2-9.3,79.3-14.6,119.3-18.6c20-2.1,40.1-3.3,60.3-4.1l60.3-2.2c40.2-1.5,80.4-2.9,120.5-5.2c20.1-1.2,40.1-2.4,60.1-4.2
						s40-4.1,59.9-6.9c39.8-5.4,79.4-12.2,119-19.4c39.6-7.2,79-15,118.5-22.7c78.9-15.5,157.8-31.3,237.4-42.9
						c19.9-2.9,39.9-5.5,59.8-8s40-4.7,60.1-6.1c40.1-2.6,81.1-1.5,120,9.7c19.5,5.4,38.2,13.2,55.7,23.3
						c17.6,9.8,34.8,20.4,51.5,31.5c33.6,22.2,66,46.1,99,68.9c66.4,45.2,134.3,88.9,207.4,122.6c18.3,8.4,36.8,16.2,55.7,22.9
						c18.8,7,38,13.1,57.2,18.9c38.6,11.3,77.8,20.1,117.6,26.3c39.7,6.3,79.8,9.7,120,10.1c40.2,0.3,80.4-2.5,120-9.7
						c-39.6,7.3-79.8,10.3-120,10c-40.2-0.3-80.4-3.6-120.2-9.8c-39.8-6.1-79.1-14.8-117.8-26c-19.3-5.7-38.5-11.8-57.4-18.7
						c-19-6.7-37.6-14.4-55.9-22.8c-73.3-33.6-141.2-77.3-207.8-122.5c-33.1-22.8-65.5-46.7-99.1-68.8
						c-16.8-11.1-33.9-21.6-51.4-31.3c-17.4-9.9-36-17.7-55.3-23c-38.6-11.1-79.3-12.2-119.3-9.5c-20,1.4-40,3.7-59.9,6.2
						s-39.9,5.1-59.7,8.1c-79.6,11.7-158.4,27.5-237.3,43.1c-39.4,7.8-78.9,15.5-118.5,22.8c-39.6,7.3-79.2,14.1-119.1,19.5
						c-19.9,2.8-39.9,5.1-60,7c-20.1,1.9-40.1,3.1-60.2,4.3c-40.2,2.3-80.4,3.8-120.5,5.3c-40.2,1.8-80.4,1.8-120.3,6.2
						c-40,3.9-79.9,9.2-118.9,18.4c-9.8,2.3-19.5,4.8-29.1,7.7c-9.6,2.8-19.2,6-28.7,9.1c-19.1,6.3-38.1,12.9-57,19.8
						c-37.8,13.7-75.3,28.1-113,42.2c-37.7,14.1-75.5,27.8-114,39.6c-9.6,3-19.3,5.7-29,8.5c-9.7,2.7-19.4,5.2-29.2,7.7
						c-19.5,4.9-39.2,9.3-58.9,13.3c-39.4,7.9-79.3,14.1-119.3,18.1s-80.3,5.8-120.5,6c-80.5,0.6-160.8-4.2-241.2-4.6l-30.1,0.5
						c-2.5,0.1-5,0-7.5,0.2l-7.5,0.5l-15,1c-20.1,0.9-40,3.5-60,5.6c-39.7,5.1-79.4,11.5-118.8,19.4
						c-78.9,15.3-157.1,34.3-235.9,50.4c-9.8,2.1-19.7,4-29.6,5.9l-29.6,5.7l-29.7,5l-14.9,2.5l-14.9,2.1l-29.9,4.2l-30,3.2l-15,1.6
						l-15,1L0.9,990.7z"/>
					<path class="st5" d="M1,980.5l30.1-2.6l15.1-1.3l15-1.9l30-3.8l29.9-4.8l14.9-2.4l14.9-2.8l29.7-5.5
						c19.8-4.1,39.5-7.9,59.2-12.3c78.9-16.9,157.3-36.1,236.7-50.4c19.8-3.9,39.8-6.7,59.8-9.8c5-0.8,10-1.4,15-2l15-1.8
						c10-1.2,20-2.6,30.1-3.2l30.2-2.4c5-0.5,10.1-0.5,15.1-0.7l15.1-0.5l15.1-0.5c5-0.2,10.1,0.2,15.1,0.2l30.3,0.8
						c80.6,4.4,160.7,14.7,241.2,19.5c80.5,5.3,161.3,2.3,241.2-8.8c39.9-5.5,79.6-12.9,118.7-22.3c39.2-9.5,77.8-21,116.3-33.1
						s76.7-25,115-37.6c19.2-6.3,38.4-12.5,57.6-18.6s38.6-11.9,58.1-17c39.1-10.2,78.8-18.1,119-22.5c20-2,39.9-5.1,59.8-8.4
						c19.9-3.3,39.9-6.4,59.7-9.6c39.8-6.4,79.5-13.2,119.2-20.5c39.7-7.3,79.2-15,118.5-24.1c78.6-18,156.7-38.2,235.4-56.2
						c39.3-9.1,78.7-17.7,118.3-25.4c39.6-7.9,79.4-14.4,119.5-19.6c20-2.6,40.1-4.7,60.2-6.5c20.1-1.8,40.2-3.3,60.4-3.8
						c20.2-0.6,40.4,0,60.6,1.9c20.1,2,40.1,6,59.5,11.7c19.4,5.8,38.1,13.9,55.6,24.2c17.4,10.3,34.3,21.4,50.9,32.9
						c33.2,23,65.1,47.8,97.6,71.7c65.2,47.3,131.8,93.5,203.9,129.6c36,18.2,73.6,33,111.9,45.4c38.4,12.5,77.5,22.2,117.3,29.1
						c39.7,7,79.9,10.9,120.3,11.6c40.3,0.6,80.7-2.4,120.3-10.1c-39.6,7.8-80,10.9-120.3,10.5c-40.4-0.6-80.7-4.3-120.4-11.2
						c-39.8-6.8-79.1-16.4-117.5-28.8c-38.4-12.4-76.1-27-112.2-45.2c-36.1-18-71-38.6-104.8-60.5s-66.9-45.2-99.5-68.9
						s-64.4-48.6-97.6-71.6c-16.6-11.5-33.4-22.6-50.8-32.8c-17.4-10.2-35.9-18.2-55.1-23.9c-19.3-5.7-39.1-9.6-59.1-11.6
						c-20-1.9-40.2-2.5-60.3-1.9c-20.1,0.5-40.2,2-60.3,3.8s-40.1,4-60.1,6.6c-40,5.2-79.7,11.8-119.3,19.7
						c-39.6,7.7-79,16.4-118.2,25.5c-78.6,18.1-156.7,38.4-235.3,56.5c-39.3,9.1-79,16.9-118.6,24.2c-39.6,7.4-79.4,14.3-119.3,20.7
						c-19.9,3.2-39.9,6.1-59.7,9.5c-19.9,3.4-39.9,6.4-60,8.4c-40,4.3-79.6,12.2-118.6,22.3c-19.5,5-38.8,10.8-58,16.9
						s-38.4,12.2-57.6,18.5c-38.3,12.5-76.6,25.4-115,37.5s-77.3,23.6-116.5,33.1s-79,16.7-119,22.3c-80,11.1-161,14-241.6,8.6
						c-80.6-5-160.6-15.3-241.2-19.8l-30.2-0.8c-5-0.1-10.1-0.4-15.1-0.2l-15.1,0.5l-15.1,0.5c-5,0.2-10.1,0.2-15.1,0.7l-30.1,2.4
						c-10.1,0.6-20,2.1-30,3.2l-15,1.8c-5,0.6-10,1.2-15,2c-19.9,3.1-39.9,5.9-59.7,9.7c-79.4,14.1-157.9,33-236.8,49.7
						c-19.7,4.3-39.5,8.1-59.3,12.1l-29.8,5.4l-14.9,2.7l-15,2.3l-29.9,4.7l-30,3.7l-15,1.9L31.2,978L1,980.5z"/>
					<path class="st5" d="M1.1,970.2c80.9-7.3,160.5-23.9,239.6-41.7s158-37.1,238.1-50.3s161.8-19.8,242.5-10.3
						c80.7,9.2,160.4,24.7,240.9,34.8c40.2,5,80.6,8.5,121.2,9.4c40.5,1,81.1-0.1,121.5-3.2c40.4-3.1,80.6-8.2,120.5-15.3
						c39.9-7.2,79.4-16.4,118.6-26.7s78.2-21.6,117.1-33.1l58.3-17.4c19.4-5.9,38.9-11.4,58.5-16.7c39.2-10.5,78.8-19.7,118.7-27.1
						c19.9-3.8,39.6-8.6,59.2-13.8c19.6-5.1,39.2-10.3,58.8-15.6c39.1-10.7,78-22.3,116.8-34.1s77.5-23.9,116.1-36.4
						c77.2-24.9,154.3-50.2,232.7-71.4c39.2-10.6,78.6-20.5,118.3-28.6c39.7-8.7,79.8-15.2,120.1-20s80.9-7.4,121.5-7.1
						s81.5,4.9,120.3,17.3c9.6,3.2,19.2,6.7,28.5,10.8c9.3,4.2,18.4,8.8,27.1,14c17.4,10.6,33.9,22.3,50.4,34.2
						c32.8,24,64.3,49.5,96.3,74.5c64,49.7,129.4,98.2,200.6,137.1c35.5,19.6,72.8,35.8,111,49.3c38.2,13.6,77.4,24.3,117.2,32.2
						c39.8,7.9,80.2,12.3,120.8,13.4c40.5,0.9,81.2-2.1,120.9-10.4c-39.7,8.4-80.4,11.5-120.9,10.8c-40.6-0.9-81-5.2-120.9-13
						c-39.9-7.7-79.1-18.4-117.4-31.8c-38.3-13.4-75.7-29.5-111.3-49.1c-35.7-19.4-69.9-41.3-103.3-64.5s-65.8-47.6-97.8-72.6
						s-63.6-50.5-96.3-74.4c-16.4-11.8-33-23.6-50.3-34.1c-8.7-5.1-17.7-9.8-26.9-13.9c-9.2-4.1-18.7-7.5-28.3-10.7
						c-38.6-12.3-79.3-16.8-119.7-17s-81,2.5-121.3,7.2s-80.3,11.4-119.9,20c-39.7,8.2-79,18.1-118.2,28.7
						c-78.3,21.3-155.4,46.7-232.5,71.7c-38.6,12.5-77.3,24.6-116.1,36.6s-77.7,23.5-116.8,34.3c-19.6,5.4-39.2,10.4-58.8,15.6
						c-19.6,5.2-39.4,10-59.4,13.7c-39.9,7.4-79.4,16.5-118.5,26.9c-19.6,5.2-39.1,10.8-58.5,16.6l-58.4,17.3
						c-38.9,11.5-77.9,22.8-117.2,33s-78.9,19.4-118.8,26.6c-40,7.1-80.3,12.2-120.8,15.2c-40.5,3.1-81.1,4.1-121.7,3.1
						c-40.6-0.9-81.1-4.5-121.4-9.5c-80.5-10.2-160.2-25.8-240.8-35c-80.6-9.6-162.2-3.1-242.1,10c-80.1,12.9-159,31.9-238.2,49.5
						S82,963.2,1.1,970.2z"/>
					<path class="st5" d="M1.2,960c162.9-18.6,318.9-72.6,481-96c40.5-6,81.3-9.4,122.3-10c20.5-0.1,41,0.5,61.4,2.2
						c20.4,1.7,40.7,4.4,60.8,8.2c80.6,14,159.9,34.9,240.2,49.9c160.6,31.1,327.2,26.8,486.9-8c40-8.3,79.7-18.2,119.2-28.7
						c19.7-5.3,39.4-10.8,59.1-16.4l59.1-16.4l118.2-32.8c19.6-5.5,39-11.9,58.3-18.7c19.3-6.8,38.5-13.8,57.6-21
						c76.4-29,151.3-62.1,226.7-93.7c37.7-15.9,75.5-31.5,113.6-46.4c38.1-14.8,76.7-28.7,115.6-41.2
						c38.9-12.5,78.4-23.7,118.3-32.9c20-4.4,39.9-9.1,60.1-12.4c20.2-3.5,40.4-6.4,60.8-8.7c40.7-4.6,81.7-6.2,122.6-4.8
						c40.9,1.6,81.9,7.5,120.8,20.6c4.8,1.8,9.7,3.3,14.4,5.3l7.1,2.9c2.4,1,4.7,2.1,7,3.1c9.4,4.2,18.5,8.9,27.3,14.2
						c8.8,5.3,17.3,11,25.6,17.1c8.3,6,16.5,12.2,24.6,18.4c32.4,25,63.7,51.4,95.2,77.5c63,52.1,127.1,103.3,197.4,145.1
						c17.6,10.4,35.5,20.3,53.9,29.2c18.4,8.8,37.1,17.1,56.2,24.4c38.1,14.8,77.3,26.7,117.3,35.4c39.9,8.8,80.6,13.9,121.4,15.2
						c40.8,1.2,81.9-1.9,121.9-10.8c-39.9,9-81,12.2-121.9,11.2c-40.9-1.2-81.6-6.2-121.6-14.9c-40-8.6-79.3-20.4-117.5-35.1
						c-19.1-7.2-37.9-15.6-56.4-24.3c-18.4-8.9-36.4-18.7-54-29.1c-35.3-20.8-69-44.1-101.7-68.7s-64.6-50.2-96.1-76.3
						s-62.8-52.5-95.2-77.4c-8.1-6.2-16.3-12.3-24.6-18.3c-8.2-6.1-16.7-11.7-25.4-17c-8.8-5.2-17.8-9.9-27.1-14
						c-2.3-1-4.6-2.1-7-3.1l-7.1-2.8c-4.7-2-9.6-3.5-14.4-5.3c-38.7-13-79.5-18.8-120.2-20.4c-40.8-1.4-81.7,0.2-122.3,4.9
						c-20.3,2.3-40.5,5.2-60.6,8.7c-20.1,3.4-40,8.1-60,12.5c-39.8,9.2-79.2,20.3-118,32.9c-38.8,12.6-77.3,26.5-115.4,41.3
						s-75.8,30.5-113.5,46.5c-75.4,31.7-150.2,64.8-226.7,93.9c-19.1,7.3-38.4,14.3-57.7,21c-19.3,6.7-38.8,13.2-58.5,18.7
						l-118.3,32.6l-59.1,16.3c-19.7,5.6-39.4,11-59.2,16.3c-39.5,10.5-79.3,20.3-119.3,28.6c-159.9,34.7-327,38.7-487.8,7.5
						c-80.4-15.1-159.6-36-240.2-50.2c-20.1-3.7-40.3-6.3-60.7-8.2c-20.3-1.7-40.8-2.3-61.2-2.3c-40.9,0.6-81.7,3.9-122.1,9.8
						C320.4,888.4,164.1,941.9,1.2,960z"/>
					<path class="st5" d="M1.3,949.8c164-22.5,320.9-79.7,485.4-99.9c20.5-2.4,41.1-4.4,61.8-5.3l7.8-0.4l7.8-0.2l15.5-0.3
						c10.3,0.1,20.7,0,31,0.6c41.4,1.3,82.5,7.8,122.6,17.7c80.5,19.2,159.1,45,239.3,64.8c80.1,20.2,162.2,31.8,244.8,34.9
						c82.5,3.2,165.3-2.5,246.7-15.7c40.7-6.6,81.2-14.8,121.3-24.5c40.1-9.7,79.9-20.9,119.5-32.7c39.6-11.8,78.9-24.6,117.7-38.6
						c38.7-14.3,76.4-31.2,113.7-49c74.6-35.5,146.8-75.7,220.1-113.9s147.5-75,224.8-104.6c38.6-14.8,78-27.6,118-38.2l7.5-2
						l7.6-1.8l15.1-3.5c10.1-2.3,20.1-4.8,30.3-6.7c20.3-3.9,40.8-7.1,61.3-9.4c41.1-4.7,82.6-5.8,123.9-3.3
						c41.3,2.7,82.5,9.8,121.6,23.6c19.5,6.9,38.4,15.7,56.3,26.2c8.9,5.3,17.5,11,25.8,17.2c8.3,6.3,16.3,12.7,24.4,19.2
						c32.1,26,63.1,53.4,94.2,80.7c62,54.5,124.9,108.6,194.4,153.4c69,45.4,146.3,77.8,226.5,97.3l7.5,1.8l7.6,1.6l15.2,3.2
						c10.1,2,20.4,3.5,30.5,5.2c10.3,1.2,20.5,2.7,30.8,3.6l15.4,1.2l7.7,0.6l7.7,0.2c41.2,1.5,82.8-1.5,123-11.1
						c-40.2,9.7-81.8,12.9-123,11.5l-7.8-0.2l-7.7-0.6l-15.5-1.1c-10.3-0.9-20.5-2.3-30.8-3.5c-10.2-1.7-20.4-3.2-30.6-5.1
						l-15.2-3.1l-7.6-1.6l-7.5-1.8c-80.4-19.3-157.9-51.4-227.2-96.7c-69.7-44.8-132.6-98.9-194.7-153.3
						c-31.1-27.3-62.1-54.6-94.2-80.5c-8.1-6.5-16.1-12.9-24.3-19.1c-8.3-6.2-16.8-11.9-25.7-17.1c-17.8-10.4-36.6-19-56-25.9
						c-38.9-13.7-79.9-20.8-121-23.4c-41.2-2.5-82.5-1.4-123.5,3.4c-20.5,2.3-40.9,5.4-61.1,9.4c-10.1,1.9-20.1,4.4-30.2,6.7
						l-15.1,3.5l-7.5,1.8l-7.5,2c-39.9,10.6-79.2,23.4-117.7,38.2c-77.1,29.6-151.2,66.4-224.4,104.7
						c-73.1,38.4-145.4,78.6-220.1,114.2c-37.3,17.7-75.1,34.7-114,48.9c-38.9,14-78.3,26.6-117.9,38.5
						c-39.6,11.9-79.4,23-119.6,32.6s-80.8,17.9-121.6,24.5c-81.7,13.1-164.6,18.8-247.2,15.5c-82.7-3.1-164.9-14.9-245.2-35.2
						c-80.2-20-158.8-45.8-239.2-65.1c-40.1-10-81-16.5-122.3-17.8c-10.3-0.6-20.6-0.5-30.9-0.6l-15.5,0.3l-7.7,0.2l-7.7,0.4
						c-20.6,0.8-41.2,2.9-61.7,5.2C322.5,871.1,165.3,927.8,1.3,949.8z"/>
					<path class="st5" d="M1.3,939.6c82.6-13.3,163.5-35.1,244.6-55.7s162.7-40.1,246.1-48c20.8-2,41.8-3,62.7-3.3
						c20.9-0.1,41.9,0.7,62.7,2.6c20.8,2.2,41.6,5,62.1,9.6c20.5,4.6,40.6,10.2,60.6,16.3c80.1,24.2,158,55.1,238,79.6
						c10,3.1,20,6,30.1,8.8c10,2.9,20.2,5.2,30.4,7.8l30.4,7.6l30.7,6.2l15.4,3.1c5.1,0.9,10.2,2.2,15.4,2.8l31,4.6l15.5,2.3
						c2.6,0.4,5.2,0.8,7.8,1.1l7.8,0.8l31.2,3.1c83.3,7.6,167.1,6.7,250.2-2.8c83.1-9.6,164.9-27.6,244.4-53.7l29.7-10
						c5-1.5,9.8-3.6,14.7-5.5l14.6-5.7l29.2-11.4L1835,887l14.3-6.4c4.8-2.2,9.6-4.2,14.2-6.6l27.9-14.2
						c18.8-9.1,36.9-19.7,55.1-29.8c72.7-41.4,142.7-87.2,213.6-131.5c35.4-22.3,71.3-43.8,107.6-64.6c18.4-10,36.5-20.5,55.3-29.8
						l14-7.2c4.7-2.4,9.3-4.8,14.1-7l28.4-13.3c38.3-16.9,77.2-32.7,117.4-44.4c19.9-6.6,40.4-11,60.7-16.1
						c20.4-4.7,41-8.3,61.8-10.8c41.6-5.2,83.6-6.2,125.4-2.9c20.9,1.7,41.7,4.7,62.2,9c20.5,4.2,40.7,10,60.4,17.3
						c19.7,7.3,38.7,16.3,56.8,26.9c18,10.8,34.9,23.3,50.6,37.2c31.8,27.2,62.6,55.6,93.2,84c61.3,56.9,122.7,114,191.3,162
						c4.2,3.1,8.6,6,12.9,8.9l13,8.7c8.7,5.7,17.8,11,26.6,16.5c4.5,2.7,9.1,5.2,13.6,7.7s9,5.3,13.7,7.5l14,7.1l7,3.5l7.1,3.3
						c37.9,17.7,77.2,32.1,117.6,42.8c40.4,10.8,81.8,17.8,123.6,19.7s83.9-1.1,124.4-11.4c-40.5,10.5-82.7,13.6-124.4,11.8
						s-83.3-8.7-123.8-19.4c-40.5-10.7-79.9-24.9-117.9-42.5l-7.1-3.3l-7-3.5l-14-7.1c-4.7-2.3-9.2-5-13.8-7.5s-9.2-5-13.7-7.7
						c-8.9-5.5-17.9-10.8-26.7-16.5l-13.1-8.7c-4.4-2.9-8.7-5.8-13-8.8c-68.7-47.9-130.3-105.1-191.6-161.9
						c-30.7-28.4-61.5-56.7-93.3-83.9c-15.6-13.9-32.4-26.3-50.4-37c-18-10.6-36.9-19.5-56.5-26.7c-19.6-7.3-39.7-13-60.1-17.2
						c-20.4-4.3-41.1-7.2-61.9-8.9c-41.7-3.3-83.5-2.3-125,3c-20.7,2.5-41.3,6.1-61.6,10.8c-20.3,5.1-40.7,9.5-60.5,16.1
						c-40.1,11.7-78.9,27.5-117,44.4l-28.4,13.3c-4.8,2.2-9.4,4.6-14,7l-14,7.1c-18.7,9.3-36.8,19.7-55.2,29.8
						c-36.2,20.8-72.1,42.4-107.5,64.7c-70.9,44.4-140.9,90.3-213.6,131.8c-18.3,10.1-36.4,20.6-55.3,29.8l-28,14.2
						c-4.6,2.5-9.5,4.5-14.2,6.6l-14.4,6.4l-28.7,12.8l-29.3,11.4l-14.6,5.7c-4.9,1.8-9.7,3.9-14.7,5.5l-29.8,10
						c-79.6,26.1-161.7,44-245,53.6c-83.3,9.4-167.3,10.2-250.7,2.5l-31.2-3.2l-7.8-0.8c-2.6-0.3-5.2-0.7-7.8-1.1l-15.5-2.3l-31-4.7
						c-5.2-0.7-10.3-1.9-15.4-2.9l-15.4-3.1l-30.8-6.2l-30.4-7.7c-10.1-2.6-20.4-4.9-30.4-7.8c-10.1-2.9-20.1-5.8-30.1-8.9
						c-80-24.6-157.9-55.5-237.9-79.8c-20-6.1-40.1-11.8-60.5-16.3s-41.1-7.5-61.8-9.7c-20.8-1.9-41.7-2.7-62.6-2.6
						c-20.9,0.3-41.8,1.3-62.6,3.2c-83.3,7.7-165,27-246.1,47.3S84,926.6,1.3,939.6z"/>
				</g>
			</g>
		</g>
	</g>
</g>
</svg>
